<svg width="70" height="70" viewBox="0 0 70 70" fill="none" xmlns="http://www.w3.org/2000/svg">
<path fill-rule="evenodd" clip-rule="evenodd" d="M35.5004 15.0837C37.6883 12.8958 40.6558 11.6667 43.75 11.6667C46.8442 11.6667 49.8116 12.8958 51.9995 15.0837C54.1875 17.2717 55.4166 20.2391 55.4166 23.3333C55.4166 26.4275 54.1875 29.395 51.9995 31.5829C49.8116 33.7708 46.8442 35 43.75 35C40.6558 35 37.6883 33.7708 35.5004 31.5829C33.3125 29.395 32.0833 26.4275 32.0833 23.3333C32.0833 20.2391 33.3125 17.2717 35.5004 15.0837ZM39.4189 27.6644C40.5676 28.813 42.1255 29.4583 43.75 29.4583C44.5543 29.4583 45.3508 29.2999 46.0939 28.9921C46.837 28.6843 47.5122 28.2331 48.081 27.6644C48.6497 27.0956 49.1009 26.4204 49.4087 25.6773C49.7165 24.9341 49.875 24.1377 49.875 23.3333C49.875 22.529 49.7165 21.7325 49.4087 20.9894C49.1009 20.2463 48.6497 19.5711 48.081 19.0023C47.5122 18.4335 46.837 17.9824 46.0939 17.6746C45.3508 17.3668 44.5543 17.2083 43.75 17.2083C42.1255 17.2083 40.5676 17.8536 39.4189 19.0023C38.2703 20.151 37.625 21.7089 37.625 23.3333C37.625 24.9578 38.2703 26.5157 39.4189 27.6644ZM20.4166 49.5833C20.4166 41.7958 35.9625 37.9167 43.75 37.9167C51.5375 37.9167 67.0833 41.7958 67.0833 49.5833V58.3333H20.4166V49.5833ZM25.9583 52.7917H61.5416V49.5833C61.5416 47.7167 52.4125 43.4583 43.75 43.4583C35 43.4583 25.9583 47.7167 25.9583 49.5833V52.7917Z" fill="#1A604E"/>
<path d="M14.5833 43.75L12.8333 42.2917C6.99996 36.75 2.91663 33.25 2.91663 28.875C2.91663 25.375 5.83329 22.4583 9.33329 22.4583C11.375 22.4583 13.4166 23.3333 14.5833 24.7917C15.75 23.3333 17.7916 22.4583 19.8333 22.4583C23.3333 22.4583 26.25 25.0833 26.25 28.875C26.25 33.25 22.1666 36.75 16.3333 42.2917L14.5833 43.75Z" fill="#1A604E"/>
<path d="M14.5833 43.75L12.8333 42.2916C6.99996 36.75 2.91663 33.25 2.91663 28.875C2.91663 25.375 5.83329 22.4583 9.33329 22.4583C11.375 22.4583 13.4166 23.3333 14.5833 24.7916C15.75 23.3333 17.7916 22.4583 19.8333 22.4583C23.3333 22.4583 26.25 25.0833 26.25 28.875C26.25 33.25 22.1666 36.75 16.3333 42.2916L14.5833 43.75Z" fill="#D85562"/>
</svg>
