<svg width="70" height="70" viewBox="0 0 70 70" fill="none" xmlns="http://www.w3.org/2000/svg">
<g clip-path="url(#clip0_527_1484)">
<path d="M31.0041 41.125C33.248 36.198 37.3569 32.3639 42.4272 30.466C47.4975 28.568 53.114 28.7616 58.0416 31.0042C62.9686 33.248 66.8027 37.3569 68.7006 42.4272C70.5986 47.4975 70.405 53.1141 68.1625 58.0417C66.5453 61.6118 63.932 64.6393 60.6363 66.7606C57.3406 68.8818 53.5026 70.0066 49.5833 70C41.7083 70 34.5041 65.45 31.1208 58.3333H2.91663V52.5C3.09163 49.175 5.36663 46.4625 9.74163 44.275C14.1166 42.0875 19.6 40.95 26.25 40.8333C27.9125 40.8333 29.4875 40.9792 31.0041 41.125ZM26.25 11.6667C29.5166 11.7542 32.2583 12.8917 34.4458 15.0792C36.6333 17.2667 37.7125 20.0083 37.7125 23.3333C37.7125 26.6583 36.6333 29.4 34.4458 31.5875C32.2583 33.775 29.5166 34.8542 26.25 34.8542C22.9833 34.8542 20.2416 33.775 18.0541 31.5875C15.8666 29.4 14.7875 26.6583 14.7875 23.3333C14.7875 20.0083 15.8666 17.2667 18.0541 15.0792C20.2416 12.8917 22.9833 11.7542 26.25 11.6667ZM49.5833 64.1667C53.451 64.1667 57.1604 62.6302 59.8953 59.8953C62.6302 57.1604 64.1666 53.4511 64.1666 49.5833C64.1666 45.7156 62.6302 42.0063 59.8953 39.2714C57.1604 36.5364 53.451 35 49.5833 35C45.7155 35 42.0062 36.5364 39.2713 39.2714C36.5364 42.0063 35 45.7156 35 49.5833C35 53.4511 36.5364 57.1604 39.2713 59.8953C42.0062 62.6302 45.7155 64.1667 49.5833 64.1667ZM46.6666 40.8333H51.0416V49.0583L58.1583 53.1708L55.9708 56.9625L46.6666 51.5958V40.8333Z" fill="#B9D0AA"/>
</g>
<defs>
<clipPath id="clip0_527_1484">
<rect width="70" height="70" fill="white"/>
</clipPath>
</defs>
</svg>
