<svg width="70" height="70" viewBox="0 0 70 70" fill="none" xmlns="http://www.w3.org/2000/svg">
<path d="M35 14.5833C32.2926 14.5833 29.6961 15.6589 27.7816 17.5733C25.8672 19.4877 24.7917 22.0843 24.7917 24.7917C24.7917 27.4991 25.8672 30.0956 27.7816 32.0101C29.6961 33.9245 32.2926 35 35 35C37.7074 35 40.3039 33.9245 42.2184 32.0101C44.1328 30.0956 45.2083 27.4991 45.2083 24.7917C45.2083 22.0843 44.1328 19.4877 42.2184 17.5733C40.3039 15.6589 37.7074 14.5833 35 14.5833ZM35 20.4167C36.1603 20.4167 37.2731 20.8776 38.0936 21.6981C38.9141 22.5186 39.375 23.6314 39.375 24.7917C39.375 25.952 38.9141 27.0648 38.0936 27.8853C37.2731 28.7057 36.1603 29.1667 35 29.1667C33.8397 29.1667 32.7269 28.7057 31.9064 27.8853C31.0859 27.0648 30.625 25.952 30.625 24.7917C30.625 23.6314 31.0859 22.5186 31.9064 21.6981C32.7269 20.8776 33.8397 20.4167 35 20.4167ZM16.0417 23.3333C14.1078 23.3333 12.2531 24.1016 10.8857 25.469C9.51823 26.8365 8.75 28.6911 8.75 30.625C8.75 33.3667 10.2958 35.7292 12.5125 36.9833C13.5625 37.5667 14.7583 37.9167 16.0417 37.9167C17.325 37.9167 18.5208 37.5667 19.5708 36.9833C20.65 36.3708 21.5542 35.4958 22.225 34.4458C20.1002 31.6767 18.9516 28.2821 18.9583 24.7917V23.975C18.0833 23.5667 17.0917 23.3333 16.0417 23.3333ZM53.9583 23.3333C52.9083 23.3333 51.9167 23.5667 51.0417 23.975V24.7917C51.0417 28.2917 49.9042 31.675 47.775 34.4458C48.125 35 48.5042 35.4375 48.9417 35.875C50.2864 37.1796 52.0848 37.9115 53.9583 37.9167C55.2417 37.9167 56.4375 37.5667 57.4875 36.9833C59.7042 35.7292 61.25 33.3667 61.25 30.625C61.25 28.6911 60.4818 26.8365 59.1143 25.469C57.7469 24.1016 55.8922 23.3333 53.9583 23.3333ZM35 40.8333C28.175 40.8333 14.5833 44.2458 14.5833 51.0417V55.4167H55.4167V51.0417C55.4167 44.2458 41.825 40.8333 35 40.8333ZM13.7375 42.4375C8.10833 43.1083 0 45.9667 0 51.0417V55.4167H8.75V49.7875C8.75 46.8417 10.7625 44.3917 13.7375 42.4375ZM56.2625 42.4375C59.2375 44.3917 61.25 46.8417 61.25 49.7875V55.4167H70V51.0417C70 45.9667 61.8917 43.1083 56.2625 42.4375ZM35 46.6667C39.4625 46.6667 44.45 48.125 47.3375 49.5833H22.6625C25.55 48.125 30.5375 46.6667 35 46.6667Z" fill="#1A604E"/>
</svg>
