<svg width="37" height="37" viewBox="0 0 37 37" fill="none" xmlns="http://www.w3.org/2000/svg">
<path d="M27.2876 32.7789C28.0153 32.0505 28.4241 31.0629 28.4241 30.0332C28.4241 29.0035 28.0153 28.016 27.2876 27.2875C28.016 28.0157 29.0039 28.4247 30.0339 28.4246C31.0638 28.4244 32.0516 28.0151 32.7798 27.2867C33.508 26.5583 33.917 25.5705 33.9169 24.5405C33.9167 23.5105 33.5074 22.5228 32.779 21.7945C31.6336 20.6491 29.6371 20.0555 28.0739 20.4872C27.2475 20.7169 26.2454 20.7539 25.6396 20.1481L18.7761 13.2845L20.1343 17.9558H17.9544L19.0443 21.2241L15.7544 21.2457L20.1481 25.6395C20.754 26.2469 20.717 27.2474 20.4873 28.0753C20.0556 29.637 20.6492 31.6335 21.7946 32.7789C22.5232 33.5071 23.5111 33.9162 24.5411 33.9162C25.5712 33.9162 26.5591 33.5071 27.2876 32.7789Z" fill="#1A604E"/>
<path opacity="0.5" d="M4.22086 15.2055C5.36632 16.3509 7.36278 16.9445 8.92603 16.5128C9.75236 16.2831 10.7529 16.2461 11.3603 16.852L15.7541 21.2457L19.0455 21.2257L17.954 17.9558H20.1355L18.7757 13.2845L16.8517 11.3605C16.2459 10.7547 16.2829 9.75259 16.5126 8.92471C16.9442 7.363 16.3507 5.36655 15.2052 4.22109C14.477 3.49268 13.4893 3.08337 12.4593 3.08323C11.4293 3.08309 10.4415 3.49211 9.71305 4.22031C9.35238 4.58088 9.06626 5.00897 8.87102 5.48012C8.67579 5.95127 8.57527 6.45625 8.5752 6.96625C8.57505 7.99623 8.98407 8.98409 9.71228 9.7125C8.98387 8.98429 7.99601 8.57527 6.96603 8.57542C5.93604 8.57556 4.9483 8.98486 4.22009 9.71327C3.49188 10.4417 3.08286 11.4295 3.08301 12.4595C3.08315 13.4895 3.49245 14.4773 4.22086 15.2055Z" fill="#1A604E"/>
</svg>
