<svg width="42" height="43" viewBox="0 0 42 43" fill="none" xmlns="http://www.w3.org/2000/svg">
<g clip-path="url(#clip0_1034_1642)">
<path d="M16.6565 39.0002C15.7991 36.2041 14.5056 34.1195 12.776 32.7467C10.1815 30.6874 6.05923 31.9672 4.53651 29.8432C3.01379 27.719 5.60335 23.8128 6.51205 21.508C7.42076 19.2032 3.02907 18.3883 3.54179 17.7339C3.88362 17.2978 6.10287 16.039 10.1996 13.9577C11.3636 7.3194 15.6632 4.00024 23.0984 4.00024C34.2511 4.00024 38.5 13.4555 38.5 19.4692C38.5 25.4831 33.3551 31.9619 26.0261 33.3588C25.3707 34.3133 26.316 36.1937 28.8617 39.0002" stroke="#1A604E" stroke-width="2.3335" stroke-linecap="round" stroke-linejoin="round"/>
<path fill-rule="evenodd" clip-rule="evenodd" d="M17.0623 13.1877C16.4907 15.4053 16.6608 16.9623 17.5726 17.8589C18.4845 18.7556 20.0386 19.342 22.2349 19.618C21.7366 22.4781 22.3442 23.82 24.0575 23.6434C25.771 23.4668 26.8004 22.7549 27.146 21.5075C29.8238 22.2601 31.2751 21.6303 31.4998 19.618C31.8372 16.5996 30.2095 14.1918 29.5422 14.1918C28.8748 14.1918 27.146 14.1106 27.146 13.1877C27.146 12.2648 25.1265 11.7434 23.3039 11.7434C21.4813 11.7434 22.5782 10.5148 20.0754 11.0002C18.4069 11.3238 17.4025 12.053 17.0623 13.1877Z" fill="#B9D0AA" stroke="#1A604E" stroke-width="2" stroke-linejoin="round"/>
<path d="M26.6878 22.8127C25.798 23.365 24.5769 24.283 24.0628 25.0002C22.7775 26.7936 21.7349 27.8855 21.5068 29.0323" stroke="#1A604E" stroke-width="2" stroke-linecap="round"/>
</g>
<defs>
<clipPath id="clip0_1034_1642">
<rect width="42" height="42" fill="white" transform="translate(0 0.5)"/>
</clipPath>
</defs>
</svg>
