<svg width="27" height="27" viewBox="0 0 27 27" fill="none" xmlns="http://www.w3.org/2000/svg">
<g clip-path="url(#clip0_47_302)">
<path d="M0 22.6667C0 24.9333 1.73333 26.6667 4 26.6667H22.6667C24.9333 26.6667 26.6667 24.9333 26.6667 22.6667V12H0V22.6667ZM22.6667 2.66667H20V1.33333C20 0.533333 19.4667 0 18.6667 0C17.8667 0 17.3333 0.533333 17.3333 1.33333V2.66667H9.33333V1.33333C9.33333 0.533333 8.8 0 8 0C7.2 0 6.66667 0.533333 6.66667 1.33333V2.66667H4C1.73333 2.66667 0 4.4 0 6.66667V9.33333H26.6667V6.66667C26.6667 4.4 24.9333 2.66667 22.6667 2.66667Z" fill="#1A604E"/>
</g>
<defs>
<clipPath id="clip0_47_302">
<rect width="26.6667" height="26.6667" fill="white"/>
</clipPath>
</defs>
</svg>
