<svg width="42" height="43" viewBox="0 0 42 43" fill="none" xmlns="http://www.w3.org/2000/svg">
<path d="M36.75 28.4965V17.9965C36.75 13.0475 36.75 10.573 35.2118 9.03475C33.8678 7.69075 31.8062 7.521 28 7.5H14C10.1937 7.521 8.13225 7.69075 6.78825 9.03475C5.25 10.573 5.25 13.0475 5.25 17.9965V28.4965C5.25 33.4472 5.25 35.9217 6.78825 37.46C8.32475 38.9965 10.801 38.9965 15.75 38.9965H26.25C31.199 38.9965 33.6753 38.9965 35.2118 37.46C36.75 35.92 36.75 33.4472 36.75 28.4965Z" fill="#B9D0AA"/>
<path d="M14 6.625C14 5.92881 14.2766 5.26113 14.7688 4.76884C15.2611 4.27656 15.9288 4 16.625 4H25.375C26.0712 4 26.7389 4.27656 27.2312 4.76884C27.7234 5.26113 28 5.92881 28 6.625V8.375C28 9.07119 27.7234 9.73887 27.2312 10.2312C26.7389 10.7234 26.0712 11 25.375 11H16.625C15.9288 11 15.2611 10.7234 14.7688 10.2312C14.2766 9.73887 14 9.07119 14 8.375V6.625Z" fill="#1A604E"/>
<path fill-rule="evenodd" clip-rule="evenodd" d="M10.9375 18.875C10.9375 18.5269 11.0758 18.1931 11.3219 17.9469C11.5681 17.7008 11.9019 17.5625 12.25 17.5625H13.125C13.4731 17.5625 13.8069 17.7008 14.0531 17.9469C14.2992 18.1931 14.4375 18.5269 14.4375 18.875C14.4375 19.2231 14.2992 19.5569 14.0531 19.8031C13.8069 20.0492 13.4731 20.1875 13.125 20.1875H12.25C11.9019 20.1875 11.5681 20.0492 11.3219 19.8031C11.0758 19.5569 10.9375 19.2231 10.9375 18.875ZM17.0625 18.875C17.0625 18.5269 17.2008 18.1931 17.4469 17.9469C17.6931 17.7008 18.0269 17.5625 18.375 17.5625H29.75C30.0981 17.5625 30.4319 17.7008 30.6781 17.9469C30.9242 18.1931 31.0625 18.5269 31.0625 18.875C31.0625 19.2231 30.9242 19.5569 30.6781 19.8031C30.4319 20.0492 30.0981 20.1875 29.75 20.1875H18.375C18.0269 20.1875 17.6931 20.0492 17.4469 19.8031C17.2008 19.5569 17.0625 19.2231 17.0625 18.875ZM10.9375 25C10.9375 24.6519 11.0758 24.3181 11.3219 24.0719C11.5681 23.8258 11.9019 23.6875 12.25 23.6875H13.125C13.4731 23.6875 13.8069 23.8258 14.0531 24.0719C14.2992 24.3181 14.4375 24.6519 14.4375 25C14.4375 25.3481 14.2992 25.6819 14.0531 25.9281C13.8069 26.1742 13.4731 26.3125 13.125 26.3125H12.25C11.9019 26.3125 11.5681 26.1742 11.3219 25.9281C11.0758 25.6819 10.9375 25.3481 10.9375 25ZM17.0625 25C17.0625 24.6519 17.2008 24.3181 17.4469 24.0719C17.6931 23.8258 18.0269 23.6875 18.375 23.6875H29.75C30.0981 23.6875 30.4319 23.8258 30.6781 24.0719C30.9242 24.3181 31.0625 24.6519 31.0625 25C31.0625 25.3481 30.9242 25.6819 30.6781 25.9281C30.4319 26.1742 30.0981 26.3125 29.75 26.3125H18.375C18.0269 26.3125 17.6931 26.1742 17.4469 25.9281C17.2008 25.6819 17.0625 25.3481 17.0625 25ZM10.9375 31.125C10.9375 30.7769 11.0758 30.4431 11.3219 30.1969C11.5681 29.9508 11.9019 29.8125 12.25 29.8125H13.125C13.4731 29.8125 13.8069 29.9508 14.0531 30.1969C14.2992 30.4431 14.4375 30.7769 14.4375 31.125C14.4375 31.4731 14.2992 31.8069 14.0531 32.0531C13.8069 32.2992 13.4731 32.4375 13.125 32.4375H12.25C11.9019 32.4375 11.5681 32.2992 11.3219 32.0531C11.0758 31.8069 10.9375 31.4731 10.9375 31.125ZM17.0625 31.125C17.0625 30.7769 17.2008 30.4431 17.4469 30.1969C17.6931 29.9508 18.0269 29.8125 18.375 29.8125H29.75C30.0981 29.8125 30.4319 29.9508 30.6781 30.1969C30.9242 30.4431 31.0625 30.7769 31.0625 31.125C31.0625 31.4731 30.9242 31.8069 30.6781 32.0531C30.4319 32.2992 30.0981 32.4375 29.75 32.4375H18.375C18.0269 32.4375 17.6931 32.2992 17.4469 32.0531C17.2008 31.8069 17.0625 31.4731 17.0625 31.125Z" fill="#1A604E"/>
</svg>
