<svg width="36" height="35" viewBox="0 0 36 35" fill="none" xmlns="http://www.w3.org/2000/svg">
<path fill-rule="evenodd" clip-rule="evenodd" d="M12.1667 4.37502C12.1667 3.98825 12.3203 3.61731 12.5938 3.34382C12.8673 3.07033 13.2382 2.91669 13.625 2.91669H22.375C22.7618 2.91669 23.1327 3.07033 23.4062 3.34382C23.6797 3.61731 23.8333 3.98825 23.8333 4.37502H26.75C27.5236 4.37502 28.2654 4.68231 28.8124 5.22929C29.3594 5.77627 29.6667 6.51814 29.6667 7.29169V29.1667C29.6667 29.9402 29.3594 30.6821 28.8124 31.2291C28.2654 31.7761 27.5236 32.0834 26.75 32.0834H9.25001C8.47646 32.0834 7.7346 31.7761 7.18762 31.2291C6.64063 30.6821 6.33334 29.9402 6.33334 29.1667V7.29169C6.33334 6.51814 6.64063 5.77627 7.18762 5.22929C7.7346 4.68231 8.47646 4.37502 9.25001 4.37502H12.1667ZM20.9167 5.83335H15.0833V8.75002H13.625C13.2382 8.75002 12.8673 8.90367 12.5938 9.17716C12.3203 9.45065 12.1667 9.82158 12.1667 10.2084C12.1667 10.5951 12.3203 10.9661 12.5938 11.2396C12.8673 11.513 13.2382 11.6667 13.625 11.6667H22.375C22.7618 11.6667 23.1327 11.513 23.4062 11.2396C23.6797 10.9661 23.8333 10.5951 23.8333 10.2084C23.8333 9.82158 23.6797 9.45065 23.4062 9.17716C23.1327 8.90367 22.7618 8.75002 22.375 8.75002H20.9167V5.83335ZM16.5417 17.5C16.5417 17.1132 16.6953 16.7423 16.9688 16.4688C17.2423 16.1953 17.6132 16.0417 18 16.0417H22.375C22.7618 16.0417 23.1327 16.1953 23.4062 16.4688C23.6797 16.7423 23.8333 17.1132 23.8333 17.5C23.8333 17.8868 23.6797 18.2577 23.4062 18.5312C23.1327 18.8047 22.7618 18.9584 22.375 18.9584H18C17.6132 18.9584 17.2423 18.8047 16.9688 18.5312C16.6953 18.2577 16.5417 17.8868 16.5417 17.5ZM13.625 16.0417C13.2382 16.0417 12.8673 16.1953 12.5938 16.4688C12.3203 16.7423 12.1667 17.1132 12.1667 17.5C12.1667 17.8868 12.3203 18.2577 12.5938 18.5312C12.8673 18.8047 13.2382 18.9584 13.625 18.9584H13.6396C14.0264 18.9584 14.3973 18.8047 14.6708 18.5312C14.9443 18.2577 15.0979 17.8868 15.0979 17.5C15.0979 17.1132 14.9443 16.7423 14.6708 16.4688C14.3973 16.1953 14.0264 16.0417 13.6396 16.0417H13.625ZM16.5417 23.3334C16.5417 22.9466 16.6953 22.5756 16.9688 22.3022C17.2423 22.0287 17.6132 21.875 18 21.875H22.375C22.7618 21.875 23.1327 22.0287 23.4062 22.3022C23.6797 22.5756 23.8333 22.9466 23.8333 23.3334C23.8333 23.7201 23.6797 24.0911 23.4062 24.3646C23.1327 24.638 22.7618 24.7917 22.375 24.7917H18C17.6132 24.7917 17.2423 24.638 16.9688 24.3646C16.6953 24.0911 16.5417 23.7201 16.5417 23.3334ZM13.625 21.875C13.2382 21.875 12.8673 22.0287 12.5938 22.3022C12.3203 22.5756 12.1667 22.9466 12.1667 23.3334C12.1667 23.7201 12.3203 24.0911 12.5938 24.3646C12.8673 24.638 13.2382 24.7917 13.625 24.7917H13.6396C14.0264 24.7917 14.3973 24.638 14.6708 24.3646C14.9443 24.0911 15.0979 23.7201 15.0979 23.3334C15.0979 22.9466 14.9443 22.5756 14.6708 22.3022C14.3973 22.0287 14.0264 21.875 13.6396 21.875H13.625Z" fill="#1A604E"/>
</svg>
