<svg width="37" height="37" viewBox="0 0 37 37" fill="none" xmlns="http://www.w3.org/2000/svg">
<path d="M13.1045 30.0625C9.89269 30.0625 7.16291 28.9386 4.91516 26.6909C2.66741 24.4431 1.54302 21.7128 1.54199 18.5C1.54097 15.2872 2.66535 12.5574 4.91516 10.3107C7.16496 8.06394 9.89474 6.93955 13.1045 6.9375C16.3142 6.93544 19.0445 8.05983 21.2954 10.3107C23.5462 12.5615 24.6701 15.2913 24.667 18.5C24.6639 21.7087 23.54 24.439 21.2954 26.6909C19.0507 28.9427 16.3204 30.0666 13.1045 30.0625ZM30.0628 30.8333L24.667 25.4375L26.8639 23.2792L28.5212 24.9365V6.16666H31.6045V24.975L33.3003 23.2792L35.4587 25.4375L30.0628 30.8333ZM13.1045 26.9792C15.4684 26.9792 17.4725 26.1569 19.117 24.5125C20.7614 22.8681 21.5837 20.8639 21.5837 18.5C21.5837 16.1361 20.7614 14.1319 19.117 12.4875C17.4725 10.8431 15.4684 10.0208 13.1045 10.0208C10.7406 10.0208 8.73644 10.8431 7.09199 12.4875C5.44755 14.1319 4.62533 16.1361 4.62533 18.5C4.62533 20.8639 5.44755 22.8681 7.09199 24.5125C8.73644 26.1569 10.7406 26.9792 13.1045 26.9792ZM16.1878 23.8958L18.3462 21.7375L14.6462 17.999V12.3333H11.5628V19.2708L16.1878 23.8958Z" fill="#1A604E"/>
</svg>
