<svg width="34" height="34" viewBox="0 0 34 34" fill="none" xmlns="http://www.w3.org/2000/svg">
<path d="M17 30.5C15.1615 30.5 13.341 30.1379 11.6424 29.4343C9.94387 28.7307 8.40053 27.6995 7.10051 26.3995C5.80048 25.0995 4.76925 23.5561 4.06569 21.8576C3.36212 20.159 3 18.3385 3 16.5C3 14.6615 3.36212 12.841 4.06569 11.1424C4.76925 9.44387 5.80048 7.90053 7.10051 6.6005C8.40053 5.30048 9.94387 4.26925 11.6424 3.56569C13.341 2.86212 15.1615 2.5 17 2.5C20.713 2.5 24.274 3.975 26.8995 6.6005C29.525 9.22601 31 12.787 31 16.5C31 20.213 29.525 23.774 26.8995 26.3995C24.274 29.025 20.713 30.5 17 30.5ZM12.3333 11.8333L21.6667 21.1667L12.3333 11.8333ZM21.6667 11.8333L12.3333 21.1667L21.6667 11.8333Z" fill="#D85562" fill-opacity="0.25"/>
<path d="M12.3333 11.8333L21.6667 21.1667M21.6667 11.8333L12.3333 21.1667M17 30.5C15.1615 30.5 13.341 30.1379 11.6424 29.4343C9.94387 28.7307 8.40053 27.6995 7.10051 26.3995C5.80048 25.0995 4.76925 23.5561 4.06569 21.8576C3.36212 20.159 3 18.3385 3 16.5C3 14.6615 3.36212 12.841 4.06569 11.1424C4.76925 9.44387 5.80048 7.90053 7.10051 6.6005C8.40053 5.30048 9.94387 4.26925 11.6424 3.56569C13.341 2.86212 15.1615 2.5 17 2.5C20.713 2.5 24.274 3.975 26.8995 6.6005C29.525 9.22601 31 12.787 31 16.5C31 20.213 29.525 23.774 26.8995 26.3995C24.274 29.025 20.713 30.5 17 30.5Z" stroke="#D85562" stroke-linecap="round"/>
</svg>
