<svg width="31" height="31" viewBox="0 0 31 31" fill="none" xmlns="http://www.w3.org/2000/svg">
<path d="M23.2502 5.16675H8.396C6.4585 5.16675 2.5835 6.45841 2.5835 10.3334C2.5835 14.2084 6.4585 15.5001 8.396 15.5001H22.6043C24.5418 15.5001 28.4168 16.7917 28.4168 20.6667C28.4168 24.5417 24.5418 25.8334 22.6043 25.8334H7.75016" stroke="#1A604E" stroke-width="2" strokeLinecap="round" stroke-linejoin="round"/>
<path d="M25.8333 7.75004C27.26 7.75004 28.4167 6.59342 28.4167 5.16671C28.4167 3.73997 27.26 2.58337 25.8333 2.58337C24.4066 2.58337 23.25 3.73997 23.25 5.16671C23.25 6.59342 24.4066 7.75004 25.8333 7.75004Z" fill="#B9D0AA" stroke="#1A604E" stroke-width="2" stroke-linejoin="round"/>
<path d="M5.16683 28.4167C6.59354 28.4167 7.75016 27.26 7.75016 25.8333C7.75016 24.4066 6.59354 23.25 5.16683 23.25C3.74009 23.25 2.5835 24.4066 2.5835 25.8333C2.5835 27.26 3.74009 28.4167 5.16683 28.4167Z" fill="#B9D0AA" stroke="#1A604E" stroke-width="2" stroke-linejoin="round"/>
</svg>
