<svg width="32" height="33" viewBox="0 0 32 33" fill="none" xmlns="http://www.w3.org/2000/svg">
<path d="M15.8332 30.6663C19.7452 30.6663 23.2868 29.0807 25.8505 26.517C28.4142 23.9533 29.9998 20.4117 29.9998 16.4997C29.9998 12.5877 28.4142 9.04602 25.8505 6.48233C23.2868 3.91867 19.7452 2.33301 15.8332 2.33301C11.9212 2.33301 8.37952 3.91867 5.81582 6.48233C3.25216 9.04602 1.6665 12.5877 1.6665 16.4997C1.6665 20.4117 3.25216 23.9533 5.81582 26.517C8.37952 29.0807 11.9212 30.6663 15.8332 30.6663Z" fill="#D85562" fill-opacity="0.31" stroke="#D85562" stroke-width="2.83333" stroke-linejoin="round"/>
<path fill-rule="evenodd" clip-rule="evenodd" d="M15.8333 25.7077C16.8113 25.7077 17.6042 24.9148 17.6042 23.9368C17.6042 22.9589 16.8113 22.166 15.8333 22.166C14.8553 22.166 14.0625 22.9589 14.0625 23.9368C14.0625 24.9148 14.8553 25.7077 15.8333 25.7077Z" fill="#D85562"/>
<path d="M15.833 8V19.3333" stroke="#D85562" stroke-width="2.83333" stroke-linecap="round" stroke-linejoin="round"/>
</svg>
