<svg width="52" height="51" viewBox="0 0 52 51" fill="none" xmlns="http://www.w3.org/2000/svg">
<path fill-rule="evenodd" clip-rule="evenodd" d="M28.7394 15.9099C30.0038 15.9099 31.2165 15.4076 32.1105 14.5135C33.0046 13.6195 33.5069 12.4068 33.5069 11.1424C33.5069 9.87803 33.0046 8.66542 32.1105 7.77135C31.2165 6.87728 30.0038 6.375 28.7394 6.375C27.475 6.375 26.2624 6.87728 25.3684 7.77135C24.4743 8.66542 23.972 9.87803 23.972 11.1424C23.972 12.4068 24.4743 13.6195 25.3684 14.5135C26.2624 15.4076 27.475 15.9099 28.7394 15.9099ZM28.7394 13.7849C29.0864 13.7849 29.4301 13.7165 29.7507 13.5837C30.0712 13.4509 30.3625 13.2563 30.6079 13.0109C30.8533 12.7656 31.0479 12.4743 31.1807 12.1537C31.3135 11.8331 31.3819 11.4894 31.3819 11.1424C31.3819 10.7954 31.3135 10.4518 31.1807 10.1312C31.0479 9.81062 30.8533 9.51932 30.6079 9.27395C30.3625 9.02858 30.0712 8.83394 29.7507 8.70114C29.4301 8.56835 29.0864 8.5 28.7394 8.5C28.0386 8.5 27.3665 8.7784 26.871 9.27395C26.3754 9.7695 26.097 10.4416 26.097 11.1424C26.097 11.8433 26.3754 12.5154 26.871 13.0109C27.3665 13.5065 28.0386 13.7849 28.7394 13.7849ZM11.375 29.75C10.8114 29.75 10.2709 29.9739 9.8724 30.3724C9.47388 30.7709 9.25 31.3114 9.25 31.875V44.625H7.125V31.875C7.125 30.7478 7.57277 29.6668 8.3698 28.8698C9.16683 28.0728 10.2478 27.625 11.375 27.625H18.7179C18.1931 22.2806 19.3129 17.9743 22.5759 16.2233C22.6171 16.2014 22.6597 16.1822 22.7034 16.1659L22.7289 16.1553C24.1165 15.64 25.6114 15.6687 26.9544 16.3636C28.2316 17.0234 29.0911 18.1379 29.6309 19.2961C29.8299 19.7225 30.0151 20.1227 30.1866 20.4967C30.5373 21.2708 30.9007 22.0391 31.2767 22.8012C31.7389 23.7203 32.0736 24.2505 32.3647 24.5894C32.6101 24.8763 32.8173 25.0166 33.0829 25.1207C33.4017 25.245 33.9329 25.364 34.8988 25.3927C35.5261 25.4115 36.1284 25.6425 36.6075 26.048C37.0865 26.4534 37.4138 27.0094 37.5359 27.625H41.125C42.2522 27.625 43.3332 28.0728 44.1302 28.8698C44.9272 29.6668 45.375 30.7478 45.375 31.875V44.625H43.25V31.875C43.25 31.3114 43.0261 30.7709 42.6276 30.3724C42.2291 29.9739 41.6886 29.75 41.125 29.75H37.0907C36.8272 30.1283 36.4735 30.4349 36.0616 30.6422C35.6498 30.8494 35.1928 30.9507 34.7319 30.9368C33.4314 30.8975 32.2 30.7307 31.0653 30.2866C30.6857 30.1381 30.3189 29.9586 29.9688 29.75H27.7099L27.7056 29.7744L31.8281 33.8417C32.1044 34.1147 32.3201 34.442 32.4614 34.8022L34.8307 40.8372C34.9639 41.1762 35.0289 41.5382 35.0221 41.9024C35.0153 42.2666 34.9369 42.6259 34.7913 42.9597C34.6457 43.2936 34.4357 43.5955 34.1734 43.8483C33.9111 44.101 33.6016 44.2996 33.2625 44.4327C32.9234 44.5658 32.5615 44.6308 32.1973 44.6241C31.8331 44.6173 31.4738 44.5388 31.14 44.3932C30.8061 44.2476 30.5042 44.0376 30.2514 43.7753C29.9987 43.513 29.8001 43.2035 29.667 42.8644L27.5133 37.3766L20.0365 29.9986C19.9578 29.9197 19.8834 29.8367 19.8134 29.75H11.375ZM22.8096 29.75L29.1666 36.023C29.2725 36.1272 29.3554 36.2524 29.4099 36.3906L31.6454 42.0877C31.6764 42.167 31.7228 42.2394 31.7818 42.3007C31.8408 42.362 31.9113 42.4112 31.9893 42.4452C32.0673 42.4793 32.1512 42.4977 32.2363 42.4994C32.3214 42.501 32.406 42.4859 32.4853 42.4548C32.5645 42.4238 32.6369 42.3774 32.6982 42.3184C32.7596 42.2594 32.8087 42.1889 32.8428 42.1109C32.8769 42.0329 32.8953 41.949 32.8969 41.8639C32.8986 41.7788 32.8834 41.6942 32.8524 41.6149L30.483 35.5799C30.4504 35.4952 30.4 35.4184 30.3353 35.3547L25.8091 30.8879C25.6847 30.7653 25.5925 30.6139 25.5406 30.4471C25.4887 30.2803 25.4787 30.1033 25.5116 29.9317L25.5466 29.75H22.8096ZM25.9536 27.625L26.4466 25.0442C26.4879 24.8276 26.5955 24.6292 26.7546 24.4766C26.9137 24.3239 27.1163 24.2245 27.3344 24.1922C27.5525 24.1598 27.7753 24.1961 27.9718 24.2961C28.1684 24.396 28.3289 24.5546 28.4313 24.7499C28.8584 25.5638 29.2845 26.2544 29.7679 26.8186C30.3449 27.489 31.0026 27.9809 31.8377 28.3071C32.6611 28.6291 33.6248 28.7778 34.7957 28.8129C34.9676 28.8181 35.1345 28.7548 35.2597 28.6369C35.385 28.5191 35.4583 28.3563 35.4635 28.1844C35.4687 28.0125 35.4054 27.8456 35.2875 27.7204C35.1697 27.5951 35.0069 27.5218 34.835 27.5166C33.7417 27.4848 32.9416 27.3466 32.3094 27.1001C31.6911 26.8579 31.2034 26.4998 30.7518 25.9739C30.2896 25.4352 29.8636 24.7201 29.378 23.7564C28.9933 22.9767 28.6214 22.1907 28.2624 21.3987L28.2571 21.386C28.0856 21.0127 27.9015 20.615 27.7046 20.1928C27.3008 19.3269 26.7228 18.6363 25.978 18.2506C25.2332 17.8659 24.3843 17.8213 23.5204 18.1284C21.5017 19.261 20.3106 22.3348 20.8451 27.5358L20.8621 27.625H25.9536Z" fill="#1A604E"/>
<path fill-rule="evenodd" clip-rule="evenodd" d="M20.467 32.831C20.3355 32.7048 20.1738 32.6146 19.9974 32.569C19.8209 32.5234 19.6357 32.5239 19.4595 32.5705C19.2834 32.6172 19.1222 32.7083 18.9914 32.8352C18.8606 32.9622 18.7647 33.1206 18.7128 33.2953L17.6684 36.8207L15.6305 39.8902C15.168 40.5946 15.0032 41.4535 15.1722 42.279C15.3412 43.1046 15.8301 43.8296 16.5322 44.2956C17.2343 44.7616 18.0923 44.9306 18.9187 44.7657C19.7451 44.6008 20.4725 44.1154 20.942 43.4156L23.2444 39.9476C23.4198 39.6833 23.5549 39.3943 23.645 39.0902L24.2017 37.2096C24.257 37.0228 24.2599 36.8244 24.2101 36.636C24.1602 36.4477 24.0596 36.2767 23.9191 36.1417L20.467 32.831ZM19.6595 37.5772L20.2545 35.5712L21.9811 37.2266L21.6071 38.4867C21.5773 38.5887 21.5331 38.6839 21.4743 38.7725L19.1718 42.2405C19.0947 42.3568 18.9954 42.4567 18.8796 42.5347C18.7638 42.6126 18.6338 42.6669 18.497 42.6946C18.3602 42.7223 18.2193 42.7227 18.0823 42.696C17.9453 42.6692 17.815 42.6157 17.6987 42.5385C17.5824 42.4614 17.4824 42.3621 17.4045 42.2463C17.3266 42.1305 17.2722 42.0005 17.2446 41.8637C17.2169 41.7269 17.2164 41.586 17.2432 41.449C17.27 41.312 17.3235 41.1817 17.4006 41.0654L19.5267 37.863C19.5855 37.7745 19.6301 37.6788 19.6606 37.5761" fill="#1A604E"/>
</svg>
