<svg width="31" height="31" viewBox="0 0 31 31" fill="none" xmlns="http://www.w3.org/2000/svg">
<path d="M6.45817 28.4167H24.5415C25.2549 28.4167 25.8332 27.8384 25.8332 27.125V9.04171H19.3748V2.58337H6.45817C5.7448 2.58337 5.1665 3.16167 5.1665 3.87504V27.125C5.1665 27.8384 5.7448 28.4167 6.45817 28.4167Z" fill="#B9D0AA" stroke="#1A604E" stroke-width="2" strokeLinecap="round" stroke-linejoin="round"/>
<path d="M19.375 2.58337L25.8333 9.04171" stroke="#1A604E" stroke-width="2" strokeLinecap="round" stroke-linejoin="round"/>
<path d="M13.4655 13.5625C12.0922 13.5625 10.979 14.8597 10.979 16.46C10.979 19.3574 13.9175 21.9915 15.4998 22.6042C17.0821 21.9915 20.0207 19.3574 20.0207 16.46C20.0207 14.8597 18.9074 13.5625 17.5342 13.5625C16.6933 13.5625 15.9498 14.049 15.4998 14.7936C15.0499 14.049 14.3064 13.5625 13.4655 13.5625Z" fill="#D85562" stroke="#1A604E" stroke-width="2" strokeLinecap="round" stroke-linejoin="round"/>
</svg>
