<svg width="51" height="51" viewBox="0 0 51 51" fill="none" xmlns="http://www.w3.org/2000/svg">
<path d="M4.26488 6.25025C4.76531 4.34093 6.50569 3.18706 8.33531 3.18706C9.46369 3.18706 10.4901 3.611 11.271 4.30269C12.132 3.58044 13.2199 3.18457 14.3438 3.18457C15.4676 3.18457 16.5555 3.58044 17.4165 4.30269C18.2245 3.58225 19.2697 3.18504 20.3522 3.18706C22.1818 3.18706 23.9222 4.34093 24.4226 6.25025C24.9008 8.0735 25.5 11.0124 25.5 14.3433C25.4999 16.2034 25.0348 18.0339 24.1468 19.6684C23.2589 21.3029 21.9764 22.6894 20.4159 23.7018C19.5521 24.266 19.125 24.9927 19.125 25.6143V26.8766C19.125 26.9488 19.1293 27.0189 19.1378 27.0869C19.2461 27.8774 19.6382 30.8131 20.0047 33.8572C20.3649 36.8439 20.7188 40.1015 20.7188 41.4371C20.7188 43.1278 20.0471 44.7493 18.8516 45.9449C17.656 47.1404 16.0345 47.8121 14.3438 47.8121C12.653 47.8121 11.0315 47.1404 9.83594 45.9449C8.6404 44.7493 7.96875 43.1278 7.96875 41.4371C7.96875 40.0983 8.32256 36.8471 8.68275 33.8572C9.04931 30.8131 9.44138 27.8774 9.54975 27.0869L9.5625 26.8766V25.6143C9.5625 24.9927 9.13538 24.266 8.27156 23.7018C6.71114 22.6894 5.42862 21.3029 4.54068 19.6684C3.65275 18.0339 3.18758 16.2034 3.1875 14.3433C3.1875 11.0124 3.78675 8.0735 4.26488 6.25025ZM19.125 15.9371C19.125 16.3597 18.9571 16.7651 18.6582 17.064C18.3593 17.3629 17.9539 17.5308 17.5312 17.5308C17.1086 17.5308 16.7032 17.3629 16.4043 17.064C16.1054 16.7651 15.9375 16.3597 15.9375 15.9371V7.96831C15.9375 7.54562 15.7696 7.14024 15.4707 6.84136C15.1718 6.54247 14.7664 6.37456 14.3438 6.37456C13.9211 6.37456 13.5157 6.54247 13.2168 6.84136C12.9179 7.14024 12.75 7.54562 12.75 7.96831V15.9371C12.75 16.3597 12.5821 16.7651 12.2832 17.064C11.9843 17.3629 11.5789 17.5308 11.1562 17.5308C10.7336 17.5308 10.3282 17.3629 10.0293 17.064C9.73041 16.7651 9.5625 16.3597 9.5625 15.9371V7.60175C9.5625 7.27628 9.43321 6.96414 9.20306 6.73399C8.97292 6.50385 8.66078 6.37456 8.33531 6.37456C7.80619 6.37456 7.44281 6.69012 7.34719 7.05987C6.71903 9.43732 6.39241 11.8843 6.375 14.3433C6.37485 15.6726 6.70724 16.9808 7.34191 18.1488C7.97657 19.3169 8.89335 20.3075 10.0088 21.0307C11.4081 21.9391 12.75 23.5361 12.75 25.6143V26.8766C12.75 27.0891 12.7362 27.3016 12.7086 27.5141C12.6002 28.2982 12.2113 31.2147 11.8479 34.2397C11.4782 37.3156 11.1562 40.3406 11.1562 41.4371C11.1562 42.2824 11.4921 43.0932 12.0898 43.691C12.6876 44.2887 13.4984 44.6246 14.3438 44.6246C15.1891 44.6246 15.9999 44.2887 16.5977 43.691C17.1954 43.0932 17.5312 42.2824 17.5312 41.4371C17.5312 40.3406 17.2125 37.3156 16.8396 34.2365C16.4762 31.2147 16.0873 28.2982 15.9789 27.5109C15.9547 27.3013 15.9409 27.0907 15.9375 26.8797V25.6175C15.9375 23.5392 17.2794 21.9423 18.6788 21.0339C19.7946 20.3104 20.7117 19.3192 21.3464 18.1506C21.981 16.982 22.3132 15.6732 22.3125 14.3433C22.3125 11.3726 21.777 8.72056 21.3403 7.05987C21.2447 6.69331 20.8781 6.37456 20.3522 6.37456C20.0267 6.37456 19.7146 6.50385 19.4844 6.73399C19.2543 6.96414 19.125 7.27628 19.125 7.60175V15.9371ZM28.6875 17.5308C28.6875 13.7266 30.1987 10.0782 32.8887 7.38825C35.5787 4.69827 39.2271 3.18706 43.0312 3.18706C43.4539 3.18706 43.8593 3.35497 44.1582 3.65386C44.4571 3.95274 44.625 4.35812 44.625 4.78081V23.8197L44.6856 24.3839C44.9391 26.7629 45.1825 29.1429 45.4155 31.5239C45.8076 35.5274 46.2188 40.0154 46.2188 41.4371C46.2188 43.1278 45.5471 44.7493 44.3516 45.9449C43.156 47.1404 41.5345 47.8121 39.8438 47.8121C38.153 47.8121 36.5315 47.1404 35.3359 45.9449C34.1404 44.7493 33.4688 43.1278 33.4688 41.4371C33.4688 40.0154 33.8799 35.5274 34.272 31.5239C34.4728 29.4935 34.6736 27.5491 34.8234 26.1084L34.8872 25.4996H31.875C31.0296 25.4996 30.2189 25.1637 29.6211 24.566C29.0233 23.9682 28.6875 23.1574 28.6875 22.3121V17.5308ZM38.2404 24.0747L38.1735 24.7186C37.9244 27.0905 37.6821 29.463 37.4468 31.8363C37.0419 35.9386 36.6562 40.2194 36.6562 41.4371C36.6562 42.2824 36.9921 43.0932 37.5898 43.691C38.1876 44.2887 38.9984 44.6246 39.8438 44.6246C40.6891 44.6246 41.4999 44.2887 42.0977 43.691C42.6954 43.0932 43.0312 42.2824 43.0312 41.4371C43.0312 40.2162 42.6456 35.9386 42.2407 31.8363C42.007 29.4629 41.7647 27.0903 41.514 24.7186L41.4471 24.0779L41.4375 23.9058V6.48612C38.7818 6.86943 36.3533 8.19702 34.597 10.2255C32.8407 12.2541 31.8743 14.8476 31.875 17.5308V22.3121H36.6562C36.8797 22.3121 37.1007 22.3592 37.3048 22.4503C37.509 22.5413 37.6916 22.6742 37.841 22.8405C37.9904 23.0067 38.1032 23.2025 38.172 23.4151C38.2408 23.6278 38.2641 23.8525 38.2404 24.0747Z" fill="#1A604E"/>
</svg>
