<svg width="42" height="43" viewBox="0 0 42 43" fill="none" xmlns="http://www.w3.org/2000/svg">
<path d="M21 39C17.0042 39 13.6722 37.6292 11.004 34.8875C8.33583 32.1459 7.00117 28.7334 7 24.65C7 22.8417 7.40833 21.0334 8.225 19.225C9.04167 17.4167 10.0625 15.6813 11.2875 14.0188C12.5125 12.3563 13.8396 10.7959 15.2688 9.33752C16.6979 7.87919 18.025 6.61044 19.25 5.53127C19.4833 5.29794 19.7534 5.13052 20.0603 5.02902C20.3671 4.92752 20.6803 4.87619 21 4.87502C21.3197 4.87385 21.6335 4.92519 21.9415 5.02902C22.2495 5.13285 22.519 5.30027 22.75 5.53127C23.975 6.61044 25.3021 7.87919 26.7312 9.33752C28.1604 10.7959 29.4875 12.3563 30.7125 14.0188C31.9375 15.6813 32.9583 17.4167 33.775 19.225C34.5917 21.0334 35 22.8417 35 24.65C35 28.7334 33.6659 32.1459 30.9977 34.8875C28.3296 37.6292 24.997 39 21 39ZM21.4812 33.75C21.8312 33.7209 22.1305 33.582 22.379 33.3335C22.6275 33.085 22.7512 32.7864 22.75 32.4375C22.75 32.0292 22.6187 31.7014 22.3562 31.454C22.0937 31.2067 21.7583 31.097 21.35 31.125C20.1542 31.2125 18.8854 30.8847 17.5437 30.1415C16.2021 29.3984 15.3562 28.0491 15.0062 26.0938C14.9479 25.7729 14.7951 25.5104 14.5477 25.3063C14.3004 25.1021 14.0157 25 13.6937 25C13.2854 25 12.95 25.1534 12.6875 25.4603C12.425 25.7671 12.3375 26.1241 12.425 26.5313C12.9208 29.1854 14.0875 31.0813 15.925 32.2188C17.7625 33.3563 19.6146 33.8667 21.4812 33.75Z" fill="#1A604E"/>
</svg>
