<svg width="60" height="60" viewBox="0 0 60 60" fill="none" xmlns="http://www.w3.org/2000/svg">
<path d="M30 55C36.9035 55 43.1535 52.2018 47.6776 47.6776C52.2018 43.1535 55 36.9035 55 30C55 23.0965 52.2018 16.8465 47.6776 12.3223C43.1535 7.79822 36.9035 5 30 5C23.0965 5 16.8465 7.79822 12.3223 12.3223C7.79822 16.8465 5 23.0965 5 30C5 36.9035 7.79822 43.1535 12.3223 47.6776C16.8465 52.2018 23.0965 55 30 55Z" fill="#B9D0AA" stroke="#1A604E" stroke-width="2" stroke-linejoin="round"/>
<path fill-rule="evenodd" clip-rule="evenodd" d="M30 46.25C31.7259 46.25 33.125 44.8509 33.125 43.125C33.125 41.3991 31.7259 40 30 40C28.2741 40 26.875 41.3991 26.875 43.125C26.875 44.8509 28.2741 46.25 30 46.25Z" fill="#1A604E"/>
<path d="M30 15V35" stroke="#1A604E" stroke-width="4" stroke-linecap="round" stroke-linejoin="round"/>
</svg>
