<svg width="42" height="43" viewBox="0 0 42 43" fill="none" xmlns="http://www.w3.org/2000/svg">
<path d="M20 32.001C19.9956 29.6945 20.688 27.4405 21.9865 25.5343C22.0593 25.4272 22.1032 25.3032 22.1138 25.1741C22.1245 25.045 22.1015 24.9153 22.0471 24.7977C21.9927 24.6801 21.9088 24.5786 21.8035 24.5031C21.6982 24.4276 21.5752 24.3806 21.4463 24.3668L21.4451 24.3667C20.7296 24.289 19.998 24.25 19.25 24.25C15.2452 24.25 11.61 25.4125 8.95933 27.0297L8.78911 27.1335C7.53982 27.9194 6.50319 28.8135 5.76153 29.7518C4.99154 30.728 4.5 31.8024 4.5 32.875C4.5 33.9905 5.02877 34.8864 5.88123 35.5707L5.88164 35.571C6.70587 36.2333 7.84626 36.7092 9.15838 37.0569C11.7892 37.7537 15.3668 37.9998 19.2464 38C19.2476 38 19.2488 38 19.25 38L20.435 37.9913C20.4359 37.9913 20.4368 37.9913 20.4376 37.9913C20.5623 37.9892 20.6846 37.9559 20.7932 37.8947C20.9026 37.8329 20.9948 37.7447 21.0612 37.6381C21.1277 37.5315 21.1663 37.4099 21.1735 37.2845C21.1807 37.1591 21.1563 37.0339 21.1025 36.9203L21.1025 36.9203C20.3968 35.4302 20.0002 33.7621 20 32.001ZM20 32.001C20 32.0007 20 32.0003 20 32H21L20 32.002C20 32.0017 20 32.0013 20 32.001ZM31.3893 36.5084C31.2157 36.5344 31.0565 36.6204 30.9395 36.7519C30.8175 36.8891 30.7501 37.0663 30.75 37.25L31.3893 36.5084ZM31.3893 36.5084L31.5261 36.5004M31.3893 36.5084L31.5261 36.5004M31.5261 36.5004C31.7087 36.5064 31.8832 36.5788 32.0164 36.7046C32.1554 36.8359 32.2391 37.0152 32.2503 37.206C32.2615 37.3969 32.1994 37.5848 32.0767 37.7314C31.9591 37.8719 31.7942 37.9643 31.6136 37.9916L31.4767 37.9996C31.2863 37.9937 31.1048 37.9155 30.9697 37.7803C30.829 37.6397 30.75 37.449 30.75 37.2501L31.5261 36.5004ZM30.7866 32.642C30.9039 32.3359 31.0954 32.0638 31.3442 31.8502L31.5778 31.6552C31.6918 31.5625 31.8176 31.4691 31.9444 31.3748L31.9635 31.3606L31.9647 31.3597L32.1572 31.2162L32.1675 31.2086L32.1776 31.2006L32.4313 31.0011L32.4404 30.994L32.4493 30.9867C32.72 30.7635 32.9591 30.5298 33.1251 30.2598C33.3178 29.9465 33.375 29.647 33.375 29.375V29.375C33.375 28.9622 33.2388 28.561 32.9875 28.2336L32.1942 28.8424L32.9875 28.2336C32.7362 27.9061 32.384 27.6708 31.9853 27.5639C31.5866 27.4571 31.1638 27.4848 30.7825 27.6427C30.4018 27.8004 30.0836 28.0792 29.8772 28.4358C29.7769 28.6071 29.6129 28.7316 29.4209 28.7823C29.2284 28.8331 29.0236 28.8053 28.8515 28.7051C28.6795 28.6049 28.5543 28.4405 28.5035 28.2479L27.5366 28.5031L28.5035 28.2479C28.4527 28.0554 28.4804 27.8506 28.5806 27.6785L28.5813 27.6774C28.9541 27.0353 29.5282 26.5341 30.2147 26.2513C30.9012 25.9686 31.6618 25.9201 32.3786 26.1134C33.0955 26.3067 33.7286 26.7309 34.1799 27.3204C34.6312 27.91 34.8755 28.6319 34.875 29.3743V29.375C34.875 30.5515 34.2852 31.342 33.6862 31.8963L33.3952 32.1503L33.2353 32.2788L32.6223 32.7424L32.6129 32.7495L32.6038 32.7568L32.434 32.8915L32.2654 33.0254L32.1668 33.2167C32.08 33.3851 31.9328 33.5144 31.7545 33.5787C31.5763 33.643 31.3804 33.6374 31.2061 33.5631C31.0318 33.4888 30.8921 33.3514 30.815 33.1783C30.7396 33.0091 30.7296 32.818 30.7866 32.642ZM11.5 12.75C11.5 10.6946 12.3165 8.72333 13.7699 7.26992C15.2233 5.81652 17.1946 5 19.25 5C21.3054 5 23.2767 5.81652 24.7301 7.26992C26.1835 8.72333 27 10.6946 27 12.75C27 14.8054 26.1835 16.7767 24.7301 18.2301C23.2767 19.6835 21.3054 20.5 19.25 20.5C17.1946 20.5 15.2233 19.6835 13.7699 18.2301C12.3165 16.7767 11.5 14.8054 11.5 12.75Z" fill="#B9D0AA" stroke="#1A604E" stroke-width="2"/>
</svg>
