<svg width="37" height="37" viewBox="0 0 37 37" fill="none" xmlns="http://www.w3.org/2000/svg">
<path d="M13.3611 3.08337C10.2778 3.08337 9.25 5.51645 9.25 8.51775C9.25 13.9521 15.2625 18.8925 18.5 20.0417C21.7375 18.8925 27.75 13.9521 27.75 8.51775C27.75 5.51645 26.4486 3.08337 23.6389 3.08337C21.9183 3.08337 19.4207 5.45531 18.5 6.85189C17.5793 5.45531 15.0817 3.08337 13.3611 3.08337Z" fill="#D85562" stroke="#1A604E" stroke-width="2" stroke-linecap="round" stroke-linejoin="round"/>
<path d="M18.5 20.0417C16.9583 20.8827 14.6458 22.7397 14.6458 25.4376C14.6458 28.1355 22.3542 27.3647 22.3542 30.0626C22.3542 32.7605 13.875 33.9167 13.875 33.9167" stroke="#1A604E" stroke-width="2" stroke-linecap="round" stroke-linejoin="round"/>
</svg>
