<svg width="35" height="35" viewBox="0 0 35 35" fill="none" xmlns="http://www.w3.org/2000/svg">
<path d="M17.4998 32.0834C21.5269 32.0834 25.1727 30.4511 27.8118 27.812C30.4509 25.173 32.0832 21.5271 32.0832 17.5001C32.0832 13.473 30.4509 9.82721 27.8118 7.1881C25.1727 4.54905 21.5269 2.91675 17.4998 2.91675C13.4728 2.91675 9.82696 4.54905 7.18786 7.1881C4.5488 9.82721 2.9165 13.473 2.9165 17.5001C2.9165 21.5271 4.5488 25.173 7.18786 27.812C9.82696 30.4511 13.4728 32.0834 17.4998 32.0834Z" fill="#B9D0AA" stroke="#1A604E" stroke-width="2" stroke-linejoin="round"/>
<path d="M17.5 20.8722V17.9556C19.9162 17.9556 21.875 15.9968 21.875 13.5806C21.875 11.1643 19.9162 9.20557 17.5 9.20557C15.0838 9.20557 13.125 11.1643 13.125 13.5806" stroke="#1A604E" stroke-width="2" strokeLinecap="round" stroke-linejoin="round"/>
<path fill-rule="evenodd" clip-rule="evenodd" d="M17.4997 27.4349C18.5064 27.4349 19.3226 26.6187 19.3226 25.612C19.3226 24.6052 18.5064 23.7891 17.4997 23.7891C16.4929 23.7891 15.6768 24.6052 15.6768 25.612C15.6768 26.6187 16.4929 27.4349 17.4997 27.4349Z" fill="#1A604E"/>
</svg>
