<svg width="36" height="35" viewBox="0 0 36 35" fill="none" xmlns="http://www.w3.org/2000/svg">
<path d="M33.3125 19.6875C33.3125 24.0625 26.75 27.3438 26.75 27.3438C26.75 27.3438 20.1875 24.0625 20.1875 19.6875C20.1875 18.8173 20.5332 17.9827 21.1486 17.3673C21.7639 16.752 22.5985 16.4063 23.4688 16.4062C24.339 16.4062 25.1736 16.752 25.7889 17.3673C26.4043 17.9827 26.75 18.8173 26.75 19.6875C26.75 18.8173 27.0957 17.9827 27.7111 17.3673C28.3264 16.752 29.161 16.4063 30.0312 16.4062C30.9015 16.4062 31.7361 16.752 32.3514 17.3673C32.9668 17.9827 33.3125 18.8173 33.3125 19.6875Z" fill="#D85562"/>
<path d="M4.875 8.75C4.875 8.45992 4.99023 8.18172 5.19535 7.9766C5.40047 7.77148 5.67867 7.65625 5.96875 7.65625H30.0312C30.3213 7.65625 30.5995 7.77148 30.8046 7.9766C31.0098 8.18172 31.125 8.45992 31.125 8.75C31.125 9.04008 31.0098 9.31828 30.8046 9.5234C30.5995 9.72852 30.3213 9.84375 30.0312 9.84375H5.96875C5.67867 9.84375 5.40047 9.72852 5.19535 9.5234C4.99023 9.31828 4.875 9.04008 4.875 8.75ZM5.96875 18.5938H14.7188C15.0088 18.5938 15.287 18.4785 15.4921 18.2734C15.6973 18.0683 15.8125 17.7901 15.8125 17.5C15.8125 17.2099 15.6973 16.9317 15.4921 16.7266C15.287 16.5215 15.0088 16.4062 14.7188 16.4062H5.96875C5.67867 16.4062 5.40047 16.5215 5.19535 16.7266C4.99023 16.9317 4.875 17.2099 4.875 17.5C4.875 17.7901 4.99023 18.0683 5.19535 18.2734C5.40047 18.4785 5.67867 18.5938 5.96875 18.5938ZM16.9062 25.1562H5.96875C5.67867 25.1562 5.40047 25.2715 5.19535 25.4766C4.99023 25.6817 4.875 25.9599 4.875 26.25C4.875 26.5401 4.99023 26.8183 5.19535 27.0234C5.40047 27.2285 5.67867 27.3438 5.96875 27.3438H16.9062C17.1963 27.3438 17.4745 27.2285 17.6796 27.0234C17.8848 26.8183 18 26.5401 18 26.25C18 25.9599 17.8848 25.6817 17.6796 25.4766C17.4745 25.2715 17.1963 25.1562 16.9062 25.1562ZM34.4062 19.6875C34.4062 24.6805 27.532 28.175 27.2395 28.3227C27.0875 28.3987 26.9199 28.4383 26.75 28.4383C26.5801 28.4383 26.4125 28.3987 26.2605 28.3227C25.968 28.175 19.0938 24.6805 19.0938 19.6875C19.0945 18.7991 19.3656 17.9321 19.8711 17.2016C20.3766 16.471 21.0925 15.9117 21.9236 15.598C22.7547 15.2842 23.6616 15.2309 24.5238 15.4452C25.3859 15.6594 26.1624 16.131 26.75 16.7973C27.3376 16.131 28.1141 15.6594 28.9762 15.4452C29.8384 15.2309 30.7453 15.2842 31.5764 15.598C32.4075 15.9117 33.1234 16.471 33.6289 17.2016C34.1344 17.9321 34.4055 18.7991 34.4062 19.6875ZM32.2188 19.6875C32.2188 19.1073 31.9883 18.5509 31.578 18.1407C31.1678 17.7305 30.6114 17.5 30.0312 17.5C29.4511 17.5 28.8947 17.7305 28.4845 18.1407C28.0742 18.5509 27.8438 19.1073 27.8438 19.6875C27.8438 19.9776 27.7285 20.2558 27.5234 20.4609C27.3183 20.666 27.0401 20.7812 26.75 20.7812C26.4599 20.7812 26.1817 20.666 25.9766 20.4609C25.7715 20.2558 25.6562 19.9776 25.6562 19.6875C25.6562 19.1073 25.4258 18.5509 25.0155 18.1407C24.6053 17.7305 24.0489 17.5 23.4688 17.5C22.8886 17.5 22.3322 17.7305 21.922 18.1407C21.5117 18.5509 21.2812 19.1073 21.2812 19.6875C21.2812 22.4465 24.8646 25.0387 26.75 26.1037C28.6354 25.04 32.2188 22.4479 32.2188 19.6875Z" fill="#1A604E"/>
</svg>
