<svg width="58" height="41" viewBox="0 0 58 41" fill="none" xmlns="http://www.w3.org/2000/svg">
<path d="M0 0H37.5C48.8218 0 58 9.17816 58 20.5C58 31.8218 48.8218 41 37.5 41H0V0Z" fill="#B9D0AA"/>
<path d="M41.75 11.9375H19.25V28.8125H23.1875V31.625L28.8125 28.8125H41.75V11.9375Z" fill="#1A604E" fill-opacity="0.25" stroke="#1A604E" stroke-width="2" stroke-linecap="round" stroke-linejoin="round"/>
<path d="M34.4375 17V17.5625V17Z" fill="#1A604E" fill-opacity="0.25"/>
<path d="M34.4375 17V17.5625" stroke="#1A604E" stroke-width="2" stroke-linecap="round" stroke-linejoin="round"/>
<path d="M26.5625 17V17.5625V17Z" fill="#1A604E" fill-opacity="0.25"/>
<path d="M26.5625 17V17.5625" stroke="#1A604E" stroke-width="2" stroke-linecap="round" stroke-linejoin="round"/>
<path d="M34.4375 22.0625C34.4375 22.0625 33.3125 24.3125 30.5 24.3125C27.6875 24.3125 26.5625 22.0625 26.5625 22.0625" fill="#1A604E" fill-opacity="0.25"/>
<path d="M34.4375 22.0625C34.4375 22.0625 33.3125 24.3125 30.5 24.3125C27.6875 24.3125 26.5625 22.0625 26.5625 22.0625" stroke="#1A604E" stroke-width="2" stroke-linecap="round" stroke-linejoin="round"/>
</svg>
