<svg width="42" height="43" viewBox="0 0 42 43" fill="none" xmlns="http://www.w3.org/2000/svg">
<path d="M35 15.375H7C5.55025 15.375 4.375 16.5503 4.375 18V35.5C4.375 36.9497 5.55025 38.125 7 38.125H35C36.4497 38.125 37.625 36.9497 37.625 35.5V18C37.625 16.5503 36.4497 15.375 35 15.375Z" fill="#B9D0AA" stroke="#1A604E" stroke-width="2" stroke-linejoin="round"/>
<path d="M16.625 8.375H25.375V4.875H16.625V8.375ZM26.25 9.25V15.375H29.75V9.25H26.25ZM15.75 15.375V9.25H12.25V15.375H15.75ZM25.375 8.375C25.8583 8.375 26.25 8.76676 26.25 9.25H29.75C29.75 6.83376 27.7912 4.875 25.375 4.875V8.375ZM16.625 4.875C14.2088 4.875 12.25 6.83376 12.25 9.25H15.75C15.75 8.76676 16.1417 8.375 16.625 8.375V4.875Z" fill="#1A604E"/>
<path d="M15.75 26.75H26.25" stroke="#1A604E" stroke-width="2" stroke-linecap="round" stroke-linejoin="round"/>
<path d="M21 21.5V32" stroke="#1A604E" stroke-width="2" stroke-linecap="round" stroke-linejoin="round"/>
</svg>
