<svg width="31" height="31" viewBox="0 0 31 31" fill="none" xmlns="http://www.w3.org/2000/svg">
<path d="M15.4998 3.875C15.8291 3.87537 16.1457 4.00143 16.3851 4.22743C16.6245 4.45343 16.7686 4.76231 16.7879 5.09097C16.8071 5.41962 16.7002 5.74324 16.4889 5.9957C16.2776 6.24816 15.9779 6.41041 15.651 6.44929L15.4998 6.45833H9.0415C8.72513 6.45837 8.41978 6.57453 8.18336 6.78476C7.94694 6.99499 7.79589 7.28468 7.75888 7.59887L7.74984 7.75V23.25C7.74988 23.5664 7.86603 23.8717 8.07626 24.1081C8.28649 24.3446 8.57618 24.4956 8.89038 24.5326L9.0415 24.5417H14.854C15.1832 24.542 15.4999 24.6681 15.7393 24.8941C15.9787 25.1201 16.1227 25.429 16.142 25.7576C16.1613 26.0863 16.0544 26.4099 15.8431 26.6624C15.6318 26.9148 15.332 27.0771 15.0051 27.116L14.854 27.125H9.0415C8.05311 27.1251 7.10205 26.7474 6.38292 26.0693C5.66379 25.3913 5.23095 24.464 5.17296 23.4773L5.1665 23.25V7.75C5.16645 6.7616 5.54409 5.81054 6.22216 5.09141C6.90023 4.37228 7.82748 3.93944 8.81417 3.88146L9.0415 3.875H15.4998ZM22.8714 10.9327L26.5242 14.5868C26.7664 14.829 26.9024 15.1575 26.9024 15.5C26.9024 15.8425 26.7664 16.171 26.5242 16.4132L22.8714 20.0673C22.629 20.3095 22.3004 20.4455 21.9577 20.4454C21.6151 20.4453 21.2865 20.3091 21.0443 20.0667C20.8021 19.8243 20.6661 19.4957 20.6662 19.153C20.6664 18.8104 20.8026 18.4818 21.045 18.2396L22.4929 16.7917H15.4998C15.1573 16.7917 14.8287 16.6556 14.5865 16.4133C14.3443 16.1711 14.2082 15.8426 14.2082 15.5C14.2082 15.1574 14.3443 14.8289 14.5865 14.5867C14.8287 14.3444 15.1573 14.2083 15.4998 14.2083H22.4929L21.045 12.7604C20.8026 12.5182 20.6664 12.1896 20.6662 11.847C20.6661 11.5043 20.8021 11.1757 21.0443 10.9333C21.2865 10.6909 21.6151 10.5547 21.9577 10.5546C22.3004 10.5545 22.629 10.6905 22.8714 10.9327Z" fill="#1A604E"/>
</svg>
