<svg width="25" height="25" viewBox="0 0 25 25" fill="none" xmlns="http://www.w3.org/2000/svg">
<g clip-path="url(#clip0_714_1319)">
<path d="M0.315918 14.1121H15.9765V15.5801H0.315918V14.1121ZM12.6073 11.0262C12.6073 10.7823 12.6554 10.5407 12.7487 10.3154C12.8421 10.09 12.9789 9.88526 13.1514 9.71278C13.3238 9.5403 13.5286 9.40349 13.7539 9.31014C13.9793 9.2168 14.2208 9.16875 14.4647 9.16875C14.9574 9.16896 15.4299 9.36468 15.7783 9.71294C16.1268 10.0612 16.3228 10.5335 16.3233 11.0262C16.3224 11.5188 16.1263 11.9909 15.7779 12.3392C15.4296 12.6875 14.9574 12.8836 14.4647 12.8844C13.9722 12.8839 13.4999 12.6879 13.1516 12.3395C12.8034 11.9911 12.6076 11.5188 12.6073 11.0262ZM10.2323 9.10391H4.01006L0.310059 9.67032V12.882L2.17725 12.8828C2.02323 12.6367 1.94086 12.3525 1.93936 12.0621C1.93967 11.6454 2.10532 11.2458 2.39995 10.9511C2.69458 10.6564 3.09412 10.4907 3.51084 10.4902H6.91826L9.68037 9.9129L9.8335 10.6465L6.99561 11.2391H3.51084C3.29266 11.2391 3.08341 11.3257 2.92913 11.48C2.77486 11.6343 2.68818 11.8435 2.68818 12.0617C2.68818 12.5121 3.05029 12.8766 3.4999 12.8824L10.2468 12.8832C10.7461 12.881 11.2243 12.6812 11.5767 12.3274C11.9291 11.9736 12.127 11.4947 12.1272 10.9953C12.1274 10.7466 12.0785 10.5002 11.9833 10.2705C11.888 10.0407 11.7484 9.8319 11.5724 9.65616C11.3964 9.48042 11.1874 9.34115 10.9574 9.24631C10.7275 9.15148 10.4811 9.10335 10.2323 9.10391Z" fill="black"/>
<path d="M13.4524 19.5203C17.6032 19.5203 20.968 16.1551 20.968 12.0043C20.968 7.85276 17.6036 4.48792 13.4524 4.48792C10.7387 4.48792 8.36763 5.93206 7.04614 8.08831H10.1938C11.1113 7.31648 12.2722 6.89417 13.4711 6.89612C16.2918 6.89612 18.5786 9.18323 18.5786 12.0043C18.5786 14.8258 16.2915 17.1129 13.4711 17.1129C12.6708 17.1129 11.9168 16.9235 11.2426 16.5953H7.51138C8.8856 18.3715 11.0325 19.5203 13.4524 19.5203Z" fill="#B9D0AA"/>
<path d="M13.4522 0.341064C8.30928 0.341064 3.94912 3.6813 2.41357 8.30942L3.84678 8.08638L6.17256 8.08716C7.56904 5.49771 10.3046 3.73755 13.4519 3.73755C18.0175 3.73755 21.7187 7.43911 21.7187 12.0047C21.7187 16.5704 18.0179 20.2715 13.4519 20.2715C10.5851 20.2715 8.06123 18.811 6.57842 16.5942H2.77725C4.56436 20.7184 8.67021 23.6051 13.4519 23.6051C19.8757 23.6051 25.0839 18.3977 25.0839 11.9731C25.0839 5.54966 19.8761 0.341064 13.4522 0.341064ZM16.0917 2.98599C16.0679 3.08082 16.0074 3.16233 15.9235 3.21258C15.8397 3.26283 15.7393 3.27771 15.6444 3.25396C14.2169 2.89961 12.7243 2.89961 11.2968 3.25396C11.2498 3.26593 11.2009 3.26847 11.1529 3.26144C11.1049 3.25441 11.0588 3.23794 11.0172 3.21299C10.9756 3.18804 10.9394 3.1551 10.9106 3.11607C10.8818 3.07704 10.8611 3.0327 10.8495 2.9856C10.8376 2.93857 10.8351 2.88966 10.8422 2.84168C10.8494 2.7937 10.8659 2.7476 10.8909 2.70605C10.916 2.6645 10.949 2.62832 10.988 2.5996C11.0271 2.57088 11.0715 2.55019 11.1187 2.53872C12.6633 2.15539 14.2783 2.15539 15.8229 2.53872C15.9178 2.56252 15.9993 2.62299 16.0496 2.70684C16.1 2.7907 16.1153 2.89109 16.0917 2.98599Z" fill="#B9D0AA"/>
</g>
<defs>
<clipPath id="clip0_714_1319">
<rect width="25" height="25" fill="white"/>
</clipPath>
</defs>
</svg>
