<svg width="41" height="43" viewBox="0 0 41 43" fill="none" xmlns="http://www.w3.org/2000/svg">
<path d="M7.06602 38.925L9.99727 25.7563C10.0556 25.4354 10.2014 25.1875 10.4348 25.0125C10.6681 24.8375 10.9452 24.75 11.266 24.75C11.6743 24.75 12.0098 24.9104 12.2723 25.2312C12.5348 25.5521 12.6223 25.9167 12.5348 26.325L9.60352 39.4937C9.54518 39.8146 9.39935 40.0625 9.16602 40.2375C8.93268 40.4125 8.6556 40.5 8.33477 40.5C7.92643 40.5 7.59102 40.3396 7.32852 40.0187C7.06602 39.6979 6.97852 39.3333 7.06602 38.925ZM12.4035 38.3563L16.866 15.825L13.716 17.05V21.25C13.716 21.7458 13.548 22.1618 13.212 22.4978C12.876 22.8337 12.4607 23.0012 11.966 23C11.4713 22.9988 11.056 22.8308 10.72 22.496C10.384 22.1612 10.216 21.7458 10.216 21.25V15.9125C10.216 15.5625 10.3111 15.2493 10.5013 14.9727C10.6914 14.6962 10.9463 14.4845 11.266 14.3375L19.0535 11.0125C19.8994 10.6625 20.7598 10.6263 21.6348 10.904C22.5098 11.1817 23.1952 11.7137 23.691 12.5L25.441 15.3C26.0535 16.2917 26.8486 17.1521 27.8263 17.8812C28.8039 18.6104 29.9338 19.0917 31.216 19.325C31.7118 19.4125 32.1278 19.6312 32.4638 19.9812C32.7998 20.3312 32.9672 20.7542 32.966 21.25C32.9648 21.7458 32.7969 22.1542 32.462 22.475C32.1272 22.7958 31.7264 22.9271 31.2598 22.8687C29.6848 22.6354 28.2118 22.1466 26.841 21.4023C25.4702 20.6579 24.3035 19.7322 23.341 18.625L22.291 23.875L25.441 26.85C25.616 27.025 25.7473 27.2222 25.8348 27.4415C25.9223 27.6608 25.966 27.8866 25.966 28.1187V38.75C25.966 39.2458 25.798 39.6617 25.462 39.9977C25.126 40.3337 24.7107 40.5012 24.216 40.5C23.7213 40.4988 23.306 40.3308 22.97 39.996C22.634 39.6612 22.466 39.2458 22.466 38.75V30L18.791 26.5L15.9473 39.1C15.8598 39.5083 15.648 39.8438 15.312 40.1063C14.976 40.3687 14.5898 40.5 14.1535 40.5C13.5702 40.5 13.1035 40.2812 12.7535 39.8438C12.4035 39.4062 12.2868 38.9104 12.4035 38.3563ZM23.341 9.875C22.3785 9.875 21.5549 9.532 20.87 8.846C20.1852 8.16 19.8422 7.33633 19.841 6.375C19.8398 5.41367 20.1828 4.59 20.87 3.904C21.5572 3.218 22.3808 2.875 23.341 2.875C24.3012 2.875 25.1254 3.218 25.8138 3.904C26.5021 4.59 26.8445 5.41367 26.841 6.375C26.8375 7.33633 26.4951 8.16058 25.8138 8.84775C25.1324 9.53492 24.3082 9.87733 23.341 9.875ZM30.341 39.1875V26.0625C30.341 25.6833 30.4653 25.3701 30.7138 25.1228C30.9623 24.8754 31.2755 24.7512 31.6535 24.75C32.0315 24.7488 32.3454 24.8731 32.595 25.1228C32.8447 25.3724 32.9683 25.6857 32.966 26.0625V39.1875C32.966 39.5667 32.8418 39.8805 32.5933 40.129C32.3448 40.3775 32.0315 40.5012 31.6535 40.5C31.2755 40.4988 30.9623 40.3746 30.7138 40.1273C30.4653 39.8799 30.341 39.5667 30.341 39.1875Z" fill="#1A604E"/>
</svg>
