<svg width="31" height="31" viewBox="0 0 31 31" fill="none" xmlns="http://www.w3.org/2000/svg">
<path d="M12.2708 12.9167C14.7676 12.9167 16.7917 10.8926 16.7917 8.39583C16.7917 5.89905 14.7676 3.875 12.2708 3.875C9.77404 3.875 7.75 5.89905 7.75 8.39583C7.75 10.8926 9.77404 12.9167 12.2708 12.9167Z" fill="#B9D0AA" stroke="#1A604E" stroke-width="2" strokeLinecap="round" stroke-linejoin="round"/>
<path d="M21.3125 5.16675C21.3125 5.16675 22.7656 8.073 21.3125 11.6251" stroke="#1A604E" stroke-width="2" strokeLinecap="round" stroke-linejoin="round"/>
<path d="M25.8335 2.58337C25.8335 2.58337 28.7397 7.81462 25.8335 14.2084" stroke="#1A604E" stroke-width="2" strokeLinecap="round" stroke-linejoin="round"/>
<path d="M2.5835 26.35V27.125H21.9585V26.35C21.9585 23.4564 21.9585 22.0097 21.3954 20.9044C20.9 19.9323 20.1096 19.1418 19.1374 18.6465C18.0322 18.0834 16.5854 18.0834 13.6918 18.0834H10.8502C7.95657 18.0834 6.50978 18.0834 5.40455 18.6465C4.43237 19.1418 3.64197 19.9323 3.14663 20.9044C2.5835 22.0097 2.5835 23.4564 2.5835 26.35Z" fill="#B9D0AA" stroke="#1A604E" stroke-width="2" strokeLinecap="round" stroke-linejoin="round"/>
</svg>
