<svg width="37" height="37" viewBox="0 0 37 37" fill="none" xmlns="http://www.w3.org/2000/svg">
<path d="M18.5001 13.875C21.4801 13.875 23.8959 11.4592 23.8959 8.47917C23.8959 5.49913 21.4801 3.08334 18.5001 3.08334C15.52 3.08334 13.1042 5.49913 13.1042 8.47917C13.1042 11.4592 15.52 13.875 18.5001 13.875Z" fill="#B9D0AA" stroke="#1A604E" stroke-width="2" stroke-linecap="round" stroke-linejoin="round"/>
<path d="M3.08337 31.6042C3.08337 24.7926 9.29544 19.2708 16.9584 19.2708" stroke="#1A604E" stroke-width="2" stroke-linecap="round" stroke-linejoin="round"/>
<path d="M24.5511 21.5833C22.9121 21.5833 21.5834 23.1316 21.5834 25.0416C21.5834 28.4998 25.0907 31.6437 26.9792 32.375C28.8677 31.6437 32.375 28.4998 32.375 25.0416C32.375 23.1316 31.0464 21.5833 29.4073 21.5833C28.4036 21.5833 27.5162 22.164 26.9792 23.0527C26.4422 22.164 25.5548 21.5833 24.5511 21.5833Z" fill="#D85562" stroke="#1A604E" stroke-width="2" stroke-linecap="round" stroke-linejoin="round"/>
</svg>
