<svg width="51" height="51" viewBox="0 0 51 51" fill="none" xmlns="http://www.w3.org/2000/svg">
<path d="M27.8901 6.37478C26.8334 6.37478 25.82 6.79456 25.0728 7.54178C24.3255 8.28899 23.9058 9.30243 23.9058 10.3592C23.9058 11.4159 24.3255 12.4293 25.0728 13.1765C25.82 13.9237 26.8334 14.3435 27.8901 14.3435C28.9469 14.3435 29.9603 13.9237 30.7075 13.1765C31.4547 12.4293 31.8745 11.4159 31.8745 10.3592C31.8745 9.30243 31.4547 8.28899 30.7075 7.54178C29.9603 6.79456 28.9469 6.37478 27.8901 6.37478ZM20.7183 10.3592C20.7183 9.17803 21.01 8.0152 21.5676 6.97395C22.1251 5.9327 22.9312 5.04527 23.9142 4.39048C24.8972 3.73569 26.0267 3.33382 27.2024 3.22055C28.3781 3.10729 29.5635 3.28614 30.6535 3.74123C31.7434 4.19632 32.7041 4.91354 33.4501 5.82921C34.1962 6.74487 34.7046 7.83062 34.9301 8.99001C35.1556 10.1494 35.0913 11.3465 34.7428 12.4751C34.3944 13.6037 33.7726 14.6287 32.9328 15.4592C33.6936 15.8795 34.3344 16.4874 34.7943 17.225L36.8534 20.5241L40.9557 23.0868C42.1029 23.8037 42.9183 24.947 43.2226 26.265C43.5268 27.5831 43.295 28.9681 42.5781 30.1153C41.8613 31.2625 40.718 32.0779 39.3999 32.3821C38.0819 32.6864 36.6969 32.4546 35.5497 31.7377L30.9278 28.8498L32.7702 31.454C33.5713 32.5862 34.0755 33.9014 34.2365 35.279L35.0333 42.1226C35.1897 43.4667 34.8058 44.818 33.9659 45.879C33.126 46.9401 31.899 47.624 30.5549 47.7804C29.2107 47.9368 27.8595 47.5528 26.7985 46.713C25.7374 45.8731 25.0535 44.6461 24.8971 43.302L24.1608 36.9429L23.0292 35.346L19.4146 44.5738C18.9209 45.8334 17.947 46.8453 16.7072 47.3869C15.4675 47.9285 14.0633 47.9554 12.8037 47.4617C11.5441 46.968 10.5322 45.9941 9.99061 44.7543C9.44903 43.5145 9.42213 42.1104 9.91583 40.8508L13.4348 31.8748C12.7931 31.8769 12.1598 31.7515 11.5351 31.4987C10.9145 31.2465 10.3496 30.8746 9.87271 30.4042C9.39584 29.9337 9.01633 29.3739 8.75585 28.7568C8.49537 28.1396 8.35903 27.4772 8.3546 26.8073C8.35018 26.1374 8.47777 25.4733 8.73008 24.8527L11.7996 17.3047C12.106 16.5528 12.5874 15.8849 13.2039 15.3565C13.8204 14.8282 14.5542 14.4547 15.3441 14.267L21.1326 12.8868L21.1741 12.8805C20.8753 12.0733 20.721 11.2198 20.7183 10.3592ZM22.787 15.9978C22.4873 15.9207 22.1734 15.9174 21.8721 15.9883L16.0805 17.3685C15.7843 17.4387 15.5093 17.5786 15.2781 17.7765C15.0469 17.9744 14.8663 18.2247 14.7513 18.5064L11.6817 26.0544C11.4906 26.5244 11.4941 27.0511 11.6914 27.5186C11.8887 27.986 12.2635 28.356 12.7336 28.547C13.2036 28.7381 13.7303 28.7346 14.1977 28.5373C14.6652 28.3401 15.0351 27.9652 15.2262 27.4952L17.6296 21.5823C17.7832 21.215 18.0751 20.9228 18.4422 20.7688C18.8093 20.6147 19.2222 20.6111 19.592 20.7588C19.9617 20.9064 20.2586 21.1935 20.4186 21.558C20.5786 21.9226 20.589 22.3354 20.4473 22.7075L12.8834 42.0142C12.7088 42.4841 12.7257 43.0037 12.9305 43.4613C13.1352 43.9188 13.5113 44.2777 13.978 44.4607C14.4447 44.6437 14.9645 44.6362 15.4257 44.4397C15.8869 44.2433 16.2525 43.8736 16.4438 43.4103L20.0361 34.2463C20.2443 33.7152 20.5911 33.2498 21.0405 32.8985C21.4898 32.5472 22.0252 32.3228 22.5907 32.2489C23.1563 32.175 23.7313 32.2542 24.2559 32.4783C24.7804 32.7023 25.2352 33.063 25.5728 33.5227L27.0327 35.5149C27.1635 35.6927 27.2458 35.9014 27.2718 36.1205L28.0655 42.9322C28.0925 43.1832 28.1689 43.4264 28.2904 43.6477C28.4118 43.869 28.5759 44.064 28.7731 44.2216C28.9704 44.3792 29.1968 44.4962 29.4395 44.5658C29.6821 44.6354 29.9361 44.6563 30.1869 44.6273C30.4377 44.5982 30.6802 44.5199 30.9005 44.3966C31.1208 44.2734 31.3146 44.1078 31.4706 43.9093C31.6266 43.7108 31.7417 43.4834 31.8094 43.2402C31.8771 42.9971 31.896 42.7429 31.865 42.4923L31.0713 35.6775C30.969 34.8 30.6406 33.9642 30.1182 33.2518L27.7977 30.0898C27.4843 29.6627 27.2823 29.1642 27.2099 28.6393C27.1376 28.1145 27.1972 27.58 27.3833 27.084L28.4671 24.2057C28.5507 23.9828 28.695 23.7879 28.8837 23.6428C29.0723 23.4977 29.2978 23.4084 29.5346 23.3848C29.7715 23.3613 30.0101 23.4045 30.2237 23.5096C30.4372 23.6146 30.6171 23.7773 30.743 23.9793L31.5303 25.2384C31.6838 25.4835 31.8908 25.6905 32.1359 25.844L37.2359 29.0315C37.4488 29.1734 37.6879 29.2712 37.9393 29.319C38.1906 29.3668 38.449 29.3637 38.6991 29.3098C38.9492 29.256 39.1859 29.1525 39.3953 29.0056C39.6047 28.8586 39.7825 28.6711 39.9181 28.4542C40.0538 28.2373 40.1445 27.9954 40.185 27.7428C40.2255 27.4902 40.2149 27.232 40.1538 26.9836C40.0927 26.7351 39.9824 26.5015 39.8295 26.2964C39.6765 26.0914 39.4839 25.9191 39.2631 25.7898L35.164 23.2271C34.7536 22.9706 34.4069 22.6239 34.1504 22.2135L32.0913 18.9112C31.8299 18.4941 31.4177 18.1938 30.9406 18.0729L22.787 15.9978Z" fill="#1A604E"/>
</svg>
