<svg width="42" height="43" viewBox="0 0 42 43" fill="none" xmlns="http://www.w3.org/2000/svg">
<path d="M5.25 18C5.25 11.4008 5.25 8.10025 7.301 6.051C9.352 4.00175 12.6508 4 19.25 4H22.75C29.3492 4 32.6497 4 34.699 6.051C36.7482 8.102 36.75 11.4008 36.75 18V25C36.75 31.5992 36.75 34.8997 34.699 36.949C32.648 38.9982 29.3492 39 22.75 39H19.25C12.6508 39 9.35025 39 7.301 36.949C5.25175 34.898 5.25 31.5992 5.25 25V18Z" stroke="#1A604E" stroke-width="2.625"/>
<path d="M21 11V14.5M21 14.5V18M21 14.5H17.5M21 14.5H24.5M14 25H28M15.75 32H26.25" stroke="#1A604E" stroke-width="2.625" stroke-linecap="round"/>
</svg>
