<svg width="31" height="32" viewBox="0 0 31 32" fill="none" xmlns="http://www.w3.org/2000/svg">
<path d="M11.604 3.08333C7.9783 3.16599 5.86126 3.51087 4.41459 4.95237C3.14876 6.21433 2.72509 7.98779 2.58301 10.8333M19.3966 3.08333C23.021 3.16599 25.1381 3.51087 26.586 4.95237C27.8519 6.21433 28.2755 7.98779 28.4163 10.8333M19.3966 28.9167C23.021 28.834 25.1381 28.4891 26.586 27.0476C27.8519 25.7857 28.2755 24.0122 28.4163 21.1667M11.604 28.9167C7.9783 28.834 5.86126 28.4891 4.41459 27.0476C3.14876 25.7857 2.72509 24.0122 2.58301 21.1667M19.3747 19.875L21.958 22.4583M20.6663 15.3542C20.6663 13.8126 20.054 12.3342 18.9639 11.2441C17.8738 10.154 16.3954 9.54166 14.8538 9.54166C13.3123 9.54166 11.8338 10.154 10.7438 11.2441C9.65373 12.3342 9.04134 13.8126 9.04134 15.3542C9.04134 16.8957 9.65373 18.3742 10.7438 19.4642C11.8338 20.5543 13.3123 21.1667 14.8538 21.1667C16.3954 21.1667 17.8738 20.5543 18.9639 19.4642C20.054 18.3742 20.6663 16.8957 20.6663 15.3542Z" stroke="#1A604E" stroke-width="1.5" stroke-linecap="round" stroke-linejoin="round"/>
</svg>
