<svg width="35" height="35" viewBox="0 0 35 35" fill="none" xmlns="http://www.w3.org/2000/svg">
<path d="M13.3318 31.479C10.8883 30.7515 8.71323 29.4008 6.99099 27.6112C7.63348 26.8498 8.02067 25.8659 8.02067 24.7916C8.02067 22.3754 6.06192 20.4166 3.64567 20.4166C3.49951 20.4166 3.35502 20.4239 3.21254 20.4379C3.01843 19.4888 2.9165 18.5064 2.9165 17.5C2.9165 15.9756 3.1504 14.5058 3.58427 13.1245C3.6047 13.1248 3.62517 13.125 3.64567 13.125C6.06192 13.125 8.02067 11.1662 8.02067 8.74996C8.02067 8.05631 7.85923 7.40042 7.57194 6.81768C9.25843 5.24953 11.3169 4.07595 13.6003 3.44385C14.3239 4.86211 15.7985 5.83332 17.4998 5.83332C19.2012 5.83332 20.6758 4.86211 21.3993 3.44385C23.6828 4.07595 25.7412 5.24953 27.4277 6.81768C27.1404 7.40042 26.979 8.05631 26.979 8.74996C26.979 11.1662 28.9378 13.125 31.354 13.125C31.3745 13.125 31.395 13.1248 31.4154 13.1245C31.8493 14.5058 32.0832 15.9756 32.0832 17.5C32.0832 18.5064 31.9812 19.4888 31.7871 20.4379C31.6446 20.4239 31.5002 20.4166 31.354 20.4166C28.9378 20.4166 26.979 22.3754 26.979 24.7916C26.979 25.8659 27.3662 26.8498 28.0087 27.6112C26.2864 29.4008 24.1114 30.7515 21.6679 31.479C21.104 29.7149 19.4511 28.4375 17.4998 28.4375C15.5486 28.4375 13.8957 29.7149 13.3318 31.479Z" fill="#B9D0AA" stroke="#1A604E" stroke-width="2" stroke-linejoin="round"/>
<path d="M17.4997 22.6041C20.3186 22.6041 22.6038 20.3189 22.6038 17.4999C22.6038 14.681 20.3186 12.3958 17.4997 12.3958C14.6807 12.3958 12.3955 14.681 12.3955 17.4999C12.3955 20.3189 14.6807 22.6041 17.4997 22.6041Z" fill="#B9D0AA" stroke="#1A604E" stroke-width="2" stroke-linejoin="round"/>
</svg>
