<svg width="52" height="51" viewBox="0 0 52 51" fill="none" xmlns="http://www.w3.org/2000/svg">
<g clip-path="url(#clip0_156_1534)">
<path d="M44.2647 15.1473L43.742 16.3501C43.6603 16.5459 43.5224 16.7132 43.3459 16.8309C43.1693 16.9486 42.9618 17.0114 42.7496 17.0114C42.5374 17.0114 42.3299 16.9486 42.1533 16.8309C41.9767 16.7132 41.8389 16.5459 41.7572 16.3501L41.2345 15.1473C40.3154 13.0196 38.6322 11.3137 36.517 10.3661L34.9041 9.64572C34.7084 9.55571 34.5427 9.41148 34.4265 9.23013C34.3103 9.04878 34.2485 8.83791 34.2485 8.62253C34.2485 8.40715 34.3103 8.19628 34.4265 8.01493C34.5427 7.83358 34.7084 7.68935 34.9041 7.59934L36.4277 6.92147C38.5961 5.9469 40.3081 4.17784 41.2111 1.97872L41.7508 0.680344C41.8298 0.479221 41.9675 0.306552 42.1461 0.184847C42.3246 0.0631423 42.5356 -0.00195313 42.7517 -0.00195312C42.9678 -0.00195312 43.1788 0.0631423 43.3574 0.184847C43.5359 0.306552 43.6736 0.479221 43.7526 0.680344L44.2902 1.97659C45.1923 4.17613 46.9035 5.94595 49.0715 6.92147L50.5972 7.60147C50.7923 7.69174 50.9575 7.83595 51.0732 8.01706C51.189 8.19818 51.2505 8.40864 51.2505 8.62359C51.2505 8.83854 51.189 9.04901 51.0732 9.23012C50.9575 9.41124 50.7923 9.55545 50.5972 9.64572L48.9822 10.364C46.8674 11.3125 45.185 13.0192 44.2668 15.1473M19.3746 4.25034C23.5028 4.24971 27.4902 5.75124 30.5925 8.47471C33.6949 11.1982 35.7003 14.9575 36.2343 19.051L41.0156 26.5713C41.3301 27.0665 41.2663 27.8038 40.5375 28.1183L36.3746 29.8991V36.1253C36.3746 37.2525 35.9268 38.3335 35.1298 39.1305C34.3328 39.9276 33.2518 40.3753 32.1246 40.3753H27.8767L27.8746 46.7503H8.74959V38.9006C8.74959 36.3931 7.82309 34.0195 6.10609 31.8775C4.10382 29.3775 2.84856 26.3626 2.48492 23.1804C2.12129 19.9981 2.66407 16.7778 4.05074 13.8905C5.43741 11.0033 7.61154 8.5665 10.3227 6.86094C13.0338 5.15537 16.1716 4.25042 19.3746 4.25034ZM19.3746 8.50034C16.9724 8.50024 14.6191 9.17874 12.5858 10.4577C10.5524 11.7366 8.92168 13.564 7.88148 15.7292C6.84127 17.8944 6.4339 20.3095 6.70629 22.6961C6.97868 25.0828 7.91975 27.3439 9.42109 29.2191C11.7458 32.1176 12.9996 35.4177 12.9996 38.9006V42.5003H23.6246L23.6288 36.1253H32.1246V27.0983L35.4183 25.6873L32.1395 20.5342L32.0183 19.595C31.6165 16.5261 30.1121 13.7082 27.7856 11.6668C25.4592 9.62539 22.4697 8.49994 19.3746 8.50034ZM41.6658 36.1105L45.2018 38.4692C47.7669 34.6311 49.1324 30.1167 49.1246 25.5003C49.1232 24.0483 48.995 22.6316 48.74 21.2503L44.6111 22.3128C44.7853 23.3513 44.8732 24.4138 44.8746 25.5003C44.881 29.277 43.764 32.9703 41.6658 36.1105Z" fill="#1A604E"/>
</g>
<defs>
<clipPath id="clip0_156_1534">
<rect width="51" height="51" fill="white" transform="translate(0.25)"/>
</clipPath>
</defs>
</svg>
