<svg width="42" height="43" viewBox="0 0 42 43" fill="none" xmlns="http://www.w3.org/2000/svg">
<g clip-path="url(#clip0_1034_1392)">
<path d="M17.0623 39C14.1165 39 11.5282 38.0159 9.29755 36.0478C7.06689 34.0796 5.71764 31.6366 5.2498 28.7188C5.19147 28.1938 5.3373 27.7341 5.6873 27.3398C6.0373 26.9454 6.4748 26.7488 6.9998 26.75H25.4186L27.3436 8.6375C27.4894 7.325 28.0511 6.22367 29.0288 5.3335C30.0065 4.44334 31.1801 3.99884 32.5498 4C34.0081 4 35.2477 4.51042 36.2686 5.53125C37.2894 6.55209 37.7998 7.79167 37.7998 9.25V9.6875C37.7998 10.1833 37.6318 10.5993 37.2958 10.9353C36.9598 11.2713 36.5445 11.4387 36.0498 11.4375C35.5551 11.4363 35.1398 11.2683 34.8038 10.9335C34.4678 10.5987 34.2998 10.1833 34.2998 9.6875V9.25C34.2998 8.75417 34.1318 8.33884 33.7958 8.004C33.4598 7.66917 33.0445 7.50117 32.5498 7.5C32.0831 7.5 31.6894 7.65342 31.3686 7.96025C31.0477 8.26709 30.8581 8.63867 30.7998 9.075L28.7873 28.1063C28.4665 31.1979 27.1977 33.7868 24.9811 35.8728C22.7644 37.9588 20.1248 39.0012 17.0623 39ZM10.8061 24.125C10.3102 24.125 9.96022 23.9862 9.75605 23.7085C9.55189 23.4308 9.47897 23.0593 9.5373 22.5938C9.56647 22.3313 9.58864 22.1195 9.6038 21.9585C9.61897 21.7975 9.62597 21.6447 9.6248 21.5C9.6248 20.625 9.33314 19.5167 8.7498 18.175C8.16647 16.8333 7.8748 15.8271 7.8748 15.1563C7.8748 14.8938 7.88939 14.6243 7.91856 14.3478C7.94772 14.0713 8.03522 13.8012 8.18106 13.5375C8.29772 13.3042 8.45814 13.1146 8.6623 12.9688C8.86647 12.8229 9.08522 12.75 9.31855 12.75C9.78522 12.75 10.1428 12.8883 10.3913 13.1648C10.6398 13.4413 10.7051 13.8134 10.5873 14.2813C10.529 14.5438 10.4998 14.8354 10.4998 15.1563C10.4998 15.8271 10.7915 16.8333 11.3748 18.175C11.9581 19.5167 12.2498 20.625 12.2498 21.5C12.2498 21.9375 12.2206 22.3021 12.1623 22.5938C12.104 22.8854 12.0311 23.1333 11.9436 23.3375C11.8269 23.5708 11.6665 23.7604 11.4623 23.9063C11.2581 24.0521 11.0394 24.125 10.8061 24.125ZM22.1811 24.125C21.6852 24.125 21.3352 23.9862 21.1311 23.7085C20.9269 23.4308 20.854 23.0593 20.9123 22.5938C20.9415 22.3313 20.9636 22.1195 20.9788 21.9585C20.994 21.7975 21.001 21.6447 20.9998 21.5C20.9998 20.625 20.7081 19.5167 20.1248 18.175C19.5415 16.8333 19.2498 15.8271 19.2498 15.1563C19.2498 14.8938 19.2644 14.6243 19.2936 14.3478C19.3227 14.0713 19.4102 13.8012 19.5561 13.5375C19.6727 13.3042 19.8331 13.1146 20.0373 12.9688C20.2415 12.8229 20.4602 12.75 20.6936 12.75C21.1602 12.75 21.5178 12.8883 21.7663 13.1648C22.0148 13.4413 22.0801 13.8134 21.9623 14.2813C21.904 14.5438 21.8748 14.8354 21.8748 15.1563C21.8748 15.8271 22.1665 16.8333 22.7498 18.175C23.3331 19.5167 23.6248 20.625 23.6248 21.5C23.6248 21.9375 23.5956 22.3021 23.5373 22.5938C23.479 22.8854 23.4061 23.1333 23.3186 23.3375C23.2019 23.5708 23.0415 23.7604 22.8373 23.9063C22.6331 24.0521 22.4144 24.125 22.1811 24.125ZM16.4936 24.125C15.9977 24.125 15.6477 23.9862 15.4436 23.7085C15.2394 23.4308 15.1665 23.0593 15.2248 22.5938C15.254 22.3313 15.2761 22.1195 15.2913 21.9585C15.3065 21.7975 15.3135 21.6447 15.3123 21.5C15.3123 20.625 15.0206 19.5167 14.4373 18.175C13.854 16.8333 13.5623 15.8271 13.5623 15.1563C13.5623 14.8938 13.5769 14.6243 13.6061 14.3478C13.6352 14.0713 13.7227 13.8012 13.8686 13.5375C13.9852 13.3042 14.1456 13.1146 14.3498 12.9688C14.554 12.8229 14.7727 12.75 15.0061 12.75C15.4727 12.75 15.8303 12.8883 16.0788 13.1648C16.3273 13.4413 16.3926 13.8134 16.2748 14.2813C16.2165 14.5438 16.1873 14.8354 16.1873 15.1563C16.1873 15.8271 16.479 16.8333 17.0623 18.175C17.6456 19.5167 17.9373 20.625 17.9373 21.5C17.9373 21.9375 17.9081 22.3021 17.8498 22.5938C17.7915 22.8854 17.7186 23.1333 17.6311 23.3375C17.5144 23.5708 17.354 23.7604 17.1498 23.9063C16.9456 24.0521 16.7269 24.125 16.4936 24.125Z" fill="#1A604E"/>
</g>
<defs>
<clipPath id="clip0_1034_1392">
<rect width="42" height="42" fill="white" transform="translate(0 0.5)"/>
</clipPath>
</defs>
</svg>
