<svg width="52" height="51" viewBox="0 0 52 51" fill="none" xmlns="http://www.w3.org/2000/svg">
<path d="M38.75 15.9375C40.159 15.9375 41.5102 15.3778 42.5065 14.3815C43.5028 13.3852 44.0625 12.034 44.0625 10.625C44.0625 9.21604 43.5028 7.86478 42.5065 6.8685C41.5102 5.87221 40.159 5.3125 38.75 5.3125C37.341 5.3125 35.9898 5.87221 34.9935 6.8685C33.9972 7.86478 33.4375 9.21604 33.4375 10.625C33.4375 12.034 33.9972 13.3852 34.9935 14.3815C35.9898 15.3778 37.341 15.9375 38.75 15.9375Z" stroke="#1A604E" stroke-width="3"/>
<path d="M13.2497 17.8183L21.7528 14.873L33.4372 20.4501L21.7528 29.1594L33.4372 36.8519L26.0082 46.748M38.0272 22.9959L40.8768 24.546L47.2497 18.5578M18.4017 33.5167L15.2461 37.6732L4.75391 43.5595" stroke="#1A604E" stroke-width="3" strokeLinecap="round" stroke-linejoin="round"/>
</svg>
