<svg width="42" height="43" viewBox="0 0 42 43" fill="none" xmlns="http://www.w3.org/2000/svg">
<g clip-path="url(#clip0_1034_300)">
<path opacity="0.5" fill-rule="evenodd" clip-rule="evenodd" d="M7.99748 31.7655C9.19973 29.886 11.7722 29.9472 13.0515 31.5835C14.784 33.8007 17.2025 35.9375 21 35.9375C24.8657 35.9375 27.2475 34.2242 28.8837 32.0367C30.1437 30.3532 32.8842 30.0767 34.2037 32.077C35.2992 33.7307 36.4857 35.0292 38.801 35.5752C38.9695 35.614 39.1287 35.6857 39.2695 35.7862C39.4103 35.8867 39.5297 36.014 39.6211 36.1609C39.7125 36.3077 39.774 36.4711 39.802 36.6418C39.83 36.8125 39.824 36.987 39.7843 37.1553C39.7446 37.3237 39.6721 37.4825 39.5709 37.6227C39.4696 37.7629 39.3416 37.8818 39.1943 37.9724C39.047 38.0629 38.8832 38.1235 38.7124 38.1506C38.5416 38.1777 38.3671 38.1708 38.199 38.1302C34.958 37.3655 33.2867 35.4457 32.0145 33.5242C31.9673 33.4509 31.9014 33.3914 31.8236 33.352C31.7457 33.3127 31.6588 33.2948 31.5717 33.3002C31.4568 33.3037 31.3443 33.3334 31.2426 33.3871C31.141 33.4407 31.053 33.517 30.9855 33.61C28.945 36.34 25.83 38.5625 21 38.5625C16.0265 38.5625 12.9307 35.6925 10.983 33.2005C10.9342 33.1319 10.8696 33.0761 10.7946 33.0377C10.7197 32.9993 10.6367 32.9795 10.5525 32.98C10.4829 32.9808 10.4148 32.9996 10.3547 33.0345C10.2946 33.0695 10.2445 33.1194 10.2095 33.1795C8.91448 35.2025 7.24323 37.3182 3.80098 38.1302C3.63285 38.1708 3.45837 38.1777 3.28755 38.1506C3.11674 38.1235 2.95297 38.0629 2.80564 37.9724C2.65832 37.8818 2.53036 37.7629 2.4291 37.6227C2.32785 37.4825 2.25531 37.3237 2.21565 37.1553C2.17598 36.987 2.16998 36.8125 2.19798 36.6418C2.22599 36.4711 2.28745 36.3077 2.37883 36.1609C2.47021 36.014 2.5897 35.8867 2.73045 35.7862C2.8712 35.6857 3.03043 35.614 3.19898 35.5752C5.65073 34.9977 6.83898 33.5767 7.99748 31.7655ZM7.99748 22.9087C9.19973 21.031 11.7722 21.0922 13.0515 22.7267C14.784 24.9475 17.2025 27.0825 21 27.0825C24.8657 27.0825 27.2475 25.3675 28.8837 23.18C30.1437 21.4965 32.8842 21.22 34.2037 23.2202C35.2992 24.8757 36.4857 26.1725 38.801 26.7185C39.1382 26.7998 39.4295 27.0114 39.6112 27.3069C39.7929 27.6023 39.8502 27.9577 39.7707 28.2954C39.6911 28.633 39.4811 28.9254 39.1866 29.1087C38.8921 29.292 38.537 29.3512 38.199 29.2735C34.958 28.5105 33.2867 26.5907 32.0145 24.6675C31.9673 24.5941 31.9014 24.5347 31.8236 24.4953C31.7457 24.4559 31.6588 24.438 31.5717 24.4435C31.4568 24.4469 31.3443 24.4766 31.2426 24.5303C31.141 24.584 31.053 24.6603 30.9855 24.7532C28.945 27.485 25.83 29.7075 21 29.7075C16.0265 29.7075 12.9307 26.8375 10.983 24.3455C10.934 24.2772 10.8693 24.2217 10.7944 24.1837C10.7195 24.1456 10.6365 24.1261 10.5525 24.1267C10.4829 24.1275 10.4148 24.1463 10.3547 24.1813C10.2946 24.2162 10.2445 24.2662 10.2095 24.3262C8.91448 26.3492 7.24323 28.4632 3.80098 29.2752C3.46292 29.353 3.10783 29.2937 2.81332 29.1105C2.51881 28.9272 2.30883 28.6348 2.22927 28.2971C2.14972 27.9595 2.20706 27.6041 2.38877 27.3086C2.57048 27.0131 2.86177 26.8016 3.19898 26.7202C5.65073 26.1427 6.83898 24.7217 7.99748 22.9087Z" fill="#1A604E"/>
<path d="M34.1251 10.125C34.1251 11.2853 33.6642 12.3981 32.8437 13.2186C32.0232 14.0391 30.9104 14.5 29.7501 14.5C28.5898 14.5 27.477 14.0391 26.6565 13.2186C25.8361 12.3981 25.3751 11.2853 25.3751 10.125C25.3751 8.96468 25.8361 7.85188 26.6565 7.03141C27.477 6.21094 28.5898 5.75 29.7501 5.75C30.9104 5.75 32.0232 6.21094 32.8437 7.03141C33.6642 7.85188 34.1251 8.96468 34.1251 10.125ZM29.1306 22.8895L27.1251 20.625L15.7501 7.7345C15.3134 7.25059 14.7041 6.95751 14.0534 6.91837C13.4027 6.87923 12.7627 7.09714 12.2711 7.52521C11.7794 7.95328 11.4756 8.55726 11.4249 9.20715C11.3741 9.85703 11.5806 10.5008 11.9999 11L13.7289 13.016C14.7876 14.2515 13.0866 16.9762 13.0866 16.9762L8.95312 21.955C10.2621 21.1325 12.0541 21.451 13.0534 22.7285C14.7841 24.9475 17.2026 27.0825 21.0001 27.0825C24.8659 27.0825 27.2476 25.3675 28.8839 23.18C28.9609 23.0785 29.0443 22.9817 29.1306 22.8895Z" fill="#1A604E"/>
</g>
<defs>
<clipPath id="clip0_1034_300">
<rect width="42" height="42" fill="white" transform="translate(0 0.5)"/>
</clipPath>
</defs>
</svg>
