<svg width="34" height="35" viewBox="0 0 34 35" fill="none" xmlns="http://www.w3.org/2000/svg">
<path d="M17 31.5C24.732 31.5 31 25.232 31 17.5C31 9.76801 24.732 3.5 17 3.5C9.26801 3.5 3 9.76801 3 17.5C3 25.232 9.26801 31.5 17 31.5Z" fill="#1A604E" fill-opacity="0.25"/>
<path d="M10.875 15.75L15.9395 20.8145C15.9887 20.8637 16.0554 20.8913 16.125 20.8913C16.1946 20.8913 16.2613 20.8637 16.3105 20.8145L30.125 7" stroke="#1A604E" stroke-width="1.2"/>
<path d="M29.8763 14.9573C30.4574 17.8994 30.0134 20.9517 28.6183 23.6063C27.2232 26.261 24.961 28.3578 22.2084 29.5479C19.4557 30.7379 16.3785 30.9494 13.4889 30.1472C10.5993 29.3449 8.07153 27.5773 6.32634 25.1385C4.58116 22.6997 3.72378 19.7368 3.8969 16.7428C4.07002 13.7489 5.26319 10.9046 7.27784 8.68319C9.2925 6.46179 12.0071 4.9973 14.9699 4.53346C17.9328 4.06961 20.9651 4.63438 23.5623 6.13378" stroke="#1A604E" stroke-linecap="round"/>
</svg>
