<svg width="29" height="31" viewBox="0 0 29 31" fill="none" xmlns="http://www.w3.org/2000/svg">
<g clip-path="url(#clip0_1379_4320)">
<path d="M14.5 15.5C16.5554 15.5 18.5267 14.6835 19.9801 13.2301C21.4335 11.7767 22.25 9.80543 22.25 7.75C22.25 5.69457 21.4335 3.72333 19.9801 2.26992C18.5267 0.816516 16.5554 0 14.5 0C12.4446 0 10.4733 0.816516 9.01992 2.26992C7.56652 3.72333 6.75 5.69457 6.75 7.75C6.75 9.80543 7.56652 11.7767 9.01992 13.2301C10.4733 14.6835 12.4446 15.5 14.5 15.5ZM8.6875 18.8422C4.20703 20.1561 0.9375 24.2975 0.9375 29.2018C0.9375 30.1947 1.74277 31 2.73574 31H26.2643C27.2572 31 28.0625 30.1947 28.0625 29.2018C28.0625 24.2975 24.793 20.1561 20.3125 18.8422V21.918C21.9836 22.3479 23.2188 23.8676 23.2188 25.6719V28.0938C23.2188 28.6266 22.7828 29.0625 22.25 29.0625H21.2812C20.7484 29.0625 20.3125 28.6266 20.3125 28.0938C20.3125 27.5609 20.7484 27.125 21.2812 27.125V25.6719C21.2812 24.6002 20.4154 23.7344 19.3438 23.7344C18.2721 23.7344 17.4062 24.6002 17.4062 25.6719V27.125C17.9391 27.125 18.375 27.5609 18.375 28.0938C18.375 28.6266 17.9391 29.0625 17.4062 29.0625H16.4375C15.9047 29.0625 15.4688 28.6266 15.4688 28.0938V25.6719C15.4688 23.8676 16.7039 22.3479 18.375 21.918V18.4607C18.0117 18.4244 17.6424 18.4062 17.267 18.4062H11.733C11.3576 18.4062 10.9883 18.4244 10.625 18.4607V22.4205C12.0236 22.8383 13.0469 24.134 13.0469 25.6719C13.0469 27.5428 11.5271 29.0625 9.65625 29.0625C7.78535 29.0625 6.26562 27.5428 6.26562 25.6719C6.26562 24.134 7.28887 22.8383 8.6875 22.4205V18.8422ZM9.65625 27.125C10.0416 27.125 10.4113 26.9719 10.6838 26.6994C10.9563 26.4269 11.1094 26.0573 11.1094 25.6719C11.1094 25.2865 10.9563 24.9169 10.6838 24.6444C10.4113 24.3718 10.0416 24.2188 9.65625 24.2188C9.27086 24.2188 8.90125 24.3718 8.62874 24.6444C8.35622 24.9169 8.20312 25.2865 8.20312 25.6719C8.20312 26.0573 8.35622 26.4269 8.62874 26.6994C8.90125 26.9719 9.27086 27.125 9.65625 27.125Z" fill="#1A604E"/>
</g>
<defs>
<clipPath id="clip0_1379_4320">
<rect width="27.13" height="31" fill="white" transform="translate(0.934998)"/>
</clipPath>
</defs>
</svg>
