<svg width="362" height="137" viewBox="0 0 362 137" fill="none" xmlns="http://www.w3.org/2000/svg">
<path fill-rule="evenodd" clip-rule="evenodd" d="M415 53C415 77.1874 398.798 97.5905 376.654 103.948C379.45 110.401 381 117.52 381 125C381 154.271 357.271 178 328 178C314.762 178 302.657 173.146 293.368 165.121C290.009 183.815 273.661 198 254 198C240.826 198 229.14 191.632 221.852 181.805C216.478 184.49 210.415 186 204 186C199.03 186 194.271 185.093 189.88 183.437C185.639 200.974 169.841 214 151 214C137.489 214 125.543 207.301 118.301 197.044C112.578 200.202 105.999 202 99 202C82.3555 202 68.0854 191.834 62.0604 177.372C55.7366 181.561 48.1532 184 40 184C17.9086 184 0 166.091 0 144C0 121.909 17.9086 104 40 104C56.6445 104 70.9146 114.166 76.9396 128.628C83.2634 124.439 90.8468 122 99 122C112.511 122 124.457 128.699 131.699 138.956C137.422 135.798 144.001 134 151 134C155.97 134 160.729 134.907 165.12 136.563C169.361 119.026 185.159 106 204 106C217.174 106 228.86 112.368 236.148 122.195C241.522 119.51 247.585 118 254 118C261.707 118 268.904 120.179 275.01 123.956C275.469 100.227 291.522 80.3178 313.346 74.052C310.55 67.599 309 60.4805 309 53C309 23.7289 332.729 0 362 0C391.271 0 415 23.7289 415 53Z" fill="#F3FDFF"/>
</svg>
