<svg width="369" height="145" viewBox="0 0 369 145" fill="none" xmlns="http://www.w3.org/2000/svg">
<path fill-rule="evenodd" clip-rule="evenodd" d="M391.985 31.0268C393.087 55.189 377.832 76.3095 356.001 83.6699C359.089 89.9887 360.961 97.0292 361.302 104.502C362.636 133.743 340.014 158.528 310.773 159.863C297.549 160.466 285.235 156.169 275.59 148.576C273.087 167.404 257.402 182.319 237.762 183.215C224.602 183.816 212.637 177.987 204.909 168.503C199.663 171.43 193.676 173.215 187.267 173.507C182.302 173.734 177.507 173.045 173.045 171.59C169.608 189.303 154.419 203.035 135.598 203.894C122.101 204.51 109.862 198.363 102.16 188.446C96.5873 191.862 90.097 193.958 83.1054 194.277C66.4782 195.036 51.7595 185.531 45.0815 171.359C38.9553 175.831 31.4909 178.614 23.3462 178.985C1.27778 179.992 -17.4286 162.919 -18.4356 140.85C-19.4427 118.782 -2.36909 100.076 19.6993 99.0685C36.3266 98.3097 51.0453 107.815 57.7233 121.987C63.8495 117.514 71.3138 114.732 79.4585 114.36C92.9555 113.744 105.195 119.891 112.897 129.808C118.47 126.392 124.96 124.296 131.952 123.977C136.917 123.751 141.712 124.439 146.173 125.894C149.611 108.182 164.799 94.4492 183.62 93.5903C196.78 92.9898 208.745 98.8189 216.473 108.303C221.719 105.376 227.706 103.591 234.115 103.299C241.814 102.947 249.103 104.796 255.375 108.29C254.751 84.5652 269.88 63.945 291.396 56.6909C288.308 50.372 286.436 43.3316 286.095 35.8589C284.76 6.61823 307.383 -18.1677 336.624 -19.5021C365.864 -20.8364 390.65 1.78614 391.985 31.0268Z" fill="#F3FDFF" fill-opacity="0.6"/>
</svg>
