<svg width="159" height="118" viewBox="0 0 159 118" fill="none" xmlns="http://www.w3.org/2000/svg">
<path d="M5.30871 48.4245C3.85336 49.946 2.08379 50.7563 0 50.8556C2.08379 50.9548 3.85336 51.7652 5.30871 53.3032C6.76406 54.8247 7.49173 56.6439 7.49173 58.7442C7.49173 57.355 7.82249 56.0816 8.48401 54.8908C9.16207 53.7001 10.0717 52.7409 11.2128 52.0298C12.3705 51.3021 13.6273 50.9217 15 50.8556C12.8997 50.7398 11.1301 49.946 9.67475 48.4245C8.2194 46.903 7.49173 45.1003 7.49173 43C7.49173 45.1003 6.76406 46.903 5.30871 48.4245Z" fill="white"/>
<path d="M46.54 10.7698C43.6505 13.7907 40.1372 15.3996 36 15.5966C40.1372 15.7936 43.6505 17.4025 46.54 20.4561C49.4295 23.4769 50.8742 27.0888 50.8742 31.2588C50.8742 28.5007 51.5309 25.9724 52.8443 23.6083C54.1905 21.2442 55.9965 19.3397 58.2621 17.9278C60.5605 16.4831 63.056 15.7279 65.7812 15.5966C61.6112 15.3667 58.0979 13.7907 55.2084 10.7698C52.3189 7.74903 50.8742 4.17003 50.8742 0C50.8742 4.17003 49.4295 7.74903 46.54 10.7698Z" fill="white"/>
<path d="M137.078 40.2326C135.138 42.2613 132.778 43.3418 130 43.4741C132.778 43.6064 135.138 44.6869 137.078 46.7376C139.019 48.7663 139.989 51.1918 139.989 53.9923C139.989 52.14 140.43 50.4421 141.312 48.8545C142.216 47.2668 143.429 45.9879 144.95 45.0397C146.494 44.0695 148.17 43.5623 150 43.4741C147.2 43.3197 144.84 42.2613 142.9 40.2326C140.959 38.204 139.989 35.8004 139.989 33C139.989 35.8004 139.019 38.204 137.078 40.2326Z" fill="white"/>
<path d="M91.7696 27.8082C91.2845 28.3153 90.6946 28.5854 90 28.6185C90.6946 28.6516 91.2845 28.9217 91.7696 29.4344C92.2547 29.9416 92.4972 30.548 92.4972 31.2481C92.4972 30.785 92.6075 30.3605 92.828 29.9636C93.054 29.5667 93.3572 29.247 93.7376 29.0099C94.1235 28.7674 94.5424 28.6406 95 28.6185C94.2999 28.5799 93.71 28.3153 93.2249 27.8082C92.7398 27.301 92.4972 26.7001 92.4972 26C92.4972 26.7001 92.2547 27.301 91.7696 27.8082Z" fill="white"/>
<path d="M84.1852 69.2547C83.312 70.1676 82.2503 70.6538 81 70.7133C82.2503 70.7729 83.312 71.2591 84.1852 72.1819C85.0584 73.0948 85.495 74.1863 85.495 75.4465C85.495 74.613 85.6935 73.849 86.0904 73.1345C86.4972 72.4201 87.043 71.8445 87.7277 71.4179C88.4223 70.9813 89.1764 70.753 90 70.7133C88.7398 70.6439 87.6781 70.1676 86.8049 69.2547C85.9316 68.3418 85.495 67.2602 85.495 66C85.495 67.2602 85.0584 68.3418 84.1852 69.2547Z" fill="white"/>
<path d="M153.185 87.2547C152.312 88.1676 151.25 88.6538 150 88.7133C151.25 88.7729 152.312 89.2591 153.185 90.1819C154.058 91.0948 154.495 92.1863 154.495 93.4465C154.495 92.613 154.693 91.849 155.09 91.1345C155.497 90.4201 156.043 89.8445 156.728 89.4179C157.422 88.9813 158.176 88.753 159 88.7133C157.74 88.6439 156.678 88.1676 155.805 87.2547C154.932 86.3418 154.495 85.2602 154.495 84C154.495 85.2602 154.058 86.3418 153.185 87.2547Z" fill="white"/>
<path d="M31.0783 80.9846C29.1378 83.0132 26.7784 84.0937 24 84.226C26.7784 84.3583 29.1378 85.4388 31.0783 87.4895C33.0187 89.5182 33.989 91.9438 33.989 94.7442C33.989 92.8919 34.43 91.194 35.312 89.6064C36.2161 88.0187 37.4289 86.7398 38.9504 85.7916C40.4939 84.8214 42.1698 84.3142 44 84.226C41.1996 84.0717 38.8401 83.0132 36.8997 80.9846C34.9592 78.9559 33.989 76.5524 33.989 73.7519C33.989 76.5524 33.0187 78.9559 31.0783 80.9846Z" fill="white"/>
<path d="M113.663 106.786C112.11 108.409 110.223 109.273 108 109.379C110.223 109.485 112.11 110.35 113.663 111.99C115.215 113.613 115.991 115.553 115.991 117.794C115.991 116.312 116.344 114.954 117.05 113.684C117.773 112.413 118.743 111.39 119.96 110.632C121.195 109.856 122.536 109.45 124 109.379C121.76 109.256 119.872 108.409 118.32 106.786C116.767 105.163 115.991 103.24 115.991 101C115.991 103.24 115.215 105.163 113.663 106.786Z" fill="white"/>
<path d="M115.012 64.0336C114.734 64.3235 114.397 64.4779 114 64.4968C114.397 64.5158 114.734 64.6702 115.012 64.9632C115.289 65.2532 115.428 65.5998 115.428 66C115.428 65.7353 115.491 65.4926 115.617 65.2658C115.746 65.0389 115.919 64.8561 116.137 64.7206C116.357 64.5819 116.597 64.5095 116.858 64.4968C116.458 64.4748 116.121 64.3235 115.843 64.0336C115.566 63.7437 115.428 63.4002 115.428 63C115.428 63.4002 115.289 63.7437 115.012 64.0336Z" fill="white"/>
</svg>
