<svg width="25" height="25" viewBox="0 0 25 25" fill="none" xmlns="http://www.w3.org/2000/svg">
<path d="M12.4998 22.917C10.1214 22.917 8.13803 22.101 6.54984 20.4691C4.96164 18.8371 4.1672 16.8059 4.1665 14.3753C4.1665 13.2989 4.40956 12.2226 4.89567 11.1462C5.38178 10.0698 5.98942 9.0368 6.71859 8.04721C7.44775 7.05763 8.23769 6.12881 9.08838 5.26075C9.93907 4.3927 10.729 3.63749 11.4582 2.99513C11.5971 2.85624 11.7578 2.75659 11.9405 2.69617C12.1231 2.63575 12.3096 2.6052 12.4998 2.6045C12.6901 2.60381 12.8769 2.63436 13.0603 2.69617C13.2436 2.75798 13.404 2.85763 13.5415 2.99513C14.2707 3.63749 15.0606 4.3927 15.9113 5.26075C16.762 6.12881 17.5519 7.05763 18.2811 8.04721C19.0103 9.0368 19.6179 10.0698 20.104 11.1462C20.5901 12.2226 20.8332 13.2989 20.8332 14.3753C20.8332 16.8059 20.0391 18.8371 18.4509 20.4691C16.8627 22.101 14.879 22.917 12.4998 22.917ZM12.7863 19.792C12.9946 19.7746 13.1728 19.692 13.3207 19.5441C13.4686 19.3962 13.5422 19.2184 13.5415 19.0108C13.5415 18.7677 13.4634 18.5726 13.3071 18.4253C13.1509 18.2781 12.9512 18.2128 12.7082 18.2295C11.9964 18.2816 11.2412 18.0864 10.4425 17.6441C9.64393 17.2017 9.14046 16.3986 8.93213 15.2347C8.89741 15.0437 8.80643 14.8875 8.65921 14.766C8.51199 14.6444 8.34255 14.5837 8.15088 14.5837C7.90782 14.5837 7.70817 14.675 7.55192 14.8576C7.39567 15.0403 7.34359 15.2528 7.39567 15.4951C7.69081 17.075 8.38525 18.2035 9.479 18.8805C10.5728 19.5576 11.6752 19.8614 12.7863 19.792Z" fill="#D85562"/>
</svg>
