<svg width="42" height="43" viewBox="0 0 42 43" fill="none" xmlns="http://www.w3.org/2000/svg">
<path d="M16.1005 2.37109C15.4205 2.37109 14.9362 2.78888 14.6313 3.20478C14.3268 3.62068 14.1365 4.06545 14.1365 4.58405C14.1365 5.10273 14.3137 5.55801 14.6015 6.0141C14.8894 6.4702 15.3486 6.98617 16.1006 6.98617H16.084L16.6279 6.99782V17.0058C12.3847 22.4091 4.14282 32.9427 4.14282 32.9427L4.10984 32.9848L4.08318 33.0309C3.66482 33.7535 3.26123 34.7579 3.26123 35.9541C3.26123 38.8687 5.67951 41.272 8.57907 41.272H33.1556C36.0475 41.272 38.4736 38.9 38.4736 35.9541C38.4736 34.6173 37.8906 33.606 37.5551 33.0295L37.5277 32.9823L25.1071 17.2908V6.99733C25.3202 6.99191 25.3583 6.98634 25.6269 6.98617H25.6341C26.3862 6.98617 26.8455 6.47003 27.1333 6.0141C27.2266 5.86612 27.3031 5.71739 27.3709 5.56744L27.4857 5.45284H27.4189C27.5299 5.17623 27.5983 4.89175 27.5983 4.58397C27.5983 4.06553 27.4082 3.62059 27.1035 3.20478C26.7988 2.78888 26.3143 2.37109 25.6341 2.37109H16.1005ZM16.1005 3.90409H25.6344C25.6266 3.90409 25.741 3.93879 25.867 4.11081C25.993 4.28283 26.0655 4.56133 26.0655 4.58413C26.0655 4.60677 25.98 4.96935 25.8371 5.19576C25.6946 5.42134 25.5563 5.45268 25.634 5.45293C25.0733 5.45293 24.64 5.46909 24.4608 5.4763V5.45932H16.508V5.46179L16.109 5.45317H16.1006C16.1803 5.45317 16.041 5.42225 15.898 5.19584C15.7552 4.96943 15.6696 4.60686 15.6696 4.58413C15.6696 4.56149 15.742 4.28291 15.8681 4.11081C15.9941 3.93896 16.1085 3.90426 16.1007 3.90426L16.1005 3.90409ZM18.1607 6.99224H23.5745V13.1503H23.5709V17.4567L23.5745 17.4615V17.8242L36.2538 33.8429C36.5744 34.3956 36.9406 35.0815 36.9406 35.9541C36.9406 38.059 35.2106 39.739 33.1559 39.739H8.57932C6.53239 39.7389 4.79439 38.0149 4.79439 35.9541C4.79439 35.6623 4.82967 35.3829 4.8884 35.1187L4.89291 35.1256C4.95168 34.8579 5.03641 34.5965 5.1459 34.3452L5.13163 34.3651C5.20779 34.1833 5.29462 34.0063 5.39166 33.8348C5.44646 33.7647 13.823 23.059 17.9972 17.7439L18.1609 17.5356V17.4408C18.1628 17.4383 18.1666 17.4336 18.1684 17.4311V13.1503H18.1609V6.99224H18.1607ZM19.7013 13.1503V17.9588L19.538 18.1669C16.741 21.7364 6.7757 34.5627 6.70334 34.6558C6.50811 35.0005 6.33584 35.4507 6.33584 35.9533C6.33584 37.2008 7.39159 38.2485 8.62435 38.2485H33.1513C34.3919 38.2485 35.4398 37.2325 35.4398 35.9533C35.4398 35.4383 35.2245 35.0285 35.013 34.6624L22.0376 17.983V13.1502H19.7014L19.7013 13.1503ZM19.3692 22.9719C21.0931 22.9719 22.5069 24.3858 22.5069 26.1096C22.5069 27.8337 21.0931 29.2476 19.3692 29.2476C17.6453 29.2476 16.2314 27.8337 16.2314 26.1099C16.2314 24.3859 17.6453 22.9719 19.3692 22.9719ZM19.3692 24.5051C18.474 24.5051 17.7645 25.2145 17.7645 26.1096C17.7645 27.005 18.4741 27.7145 19.3692 27.7145C20.2645 27.7145 20.974 27.0052 20.974 26.1097C20.974 25.2144 20.2644 24.5049 19.3692 24.5049V24.5051ZM14.4233 29.0018C16.1472 29.0018 17.5612 30.4158 17.5612 32.1397C17.5612 33.8635 16.1472 35.2775 14.4233 35.2775C12.6994 35.2775 11.2854 33.8635 11.2854 32.1396C11.2854 30.4157 12.6994 29.0018 14.4233 29.0018ZM22.3494 29.8804C24.3726 29.8804 26.0292 31.5371 26.0292 33.5603C26.0292 35.5836 24.3725 37.24 22.3494 37.24C20.3263 37.24 18.6695 35.5835 18.6695 33.5603C18.6695 31.5371 20.3263 29.8804 22.3494 29.8804ZM14.4233 30.535C13.5281 30.535 12.8186 31.2445 12.8186 32.1397C12.8186 33.035 13.5282 33.7444 14.4233 33.7444C15.3186 33.7444 16.0281 33.035 16.0281 32.1397C16.0281 31.2445 15.3185 30.535 14.4233 30.535ZM22.3494 31.4135C21.1549 31.4135 20.2027 32.3657 20.2027 33.5603C20.2027 34.7548 21.1549 35.707 22.3494 35.707C23.5441 35.707 24.4962 34.7551 24.4962 33.5603C24.4962 32.3657 23.544 31.4135 22.3494 31.4135Z" fill="#1A604E"/>
</svg>
