<svg width="43" height="43" viewBox="0 0 43 43" fill="none" xmlns="http://www.w3.org/2000/svg">
<path fill-rule="evenodd" clip-rule="evenodd" d="M8.93422 19.7641L15.4536 14.2937L21.9729 8.8233C25.9525 5.48406 31.8855 6.00314 35.2247 9.9827C38.564 13.9623 38.0449 19.8953 34.0653 23.2345L27.546 28.7049L21.0267 34.1753C17.0471 37.5145 11.1141 36.9955 7.77484 33.0159C4.4356 29.0364 4.95468 23.1033 8.93422 19.7641Z" fill="#B9D0AA" stroke="#1A604E" stroke-width="2"/>
<path d="M17.4326 16.2703L25.5678 26.7297" stroke="#EAEEF1" stroke-width="2" stroke-linecap="round" stroke-linejoin="round"/>
<path d="M19.6698 18.5946C18.4342 18.5946 17.4326 19.7618 17.4326 21.2016C17.4326 23.8085 20.0765 26.1785 21.5002 26.7297C22.9238 26.1785 25.5678 23.8085 25.5678 21.2016C25.5678 19.7618 24.5661 18.5946 23.3306 18.5946C22.574 18.5946 21.905 19.0323 21.5002 19.7023C21.0953 19.0323 20.4264 18.5946 19.6698 18.5946Z" fill="#D85562" stroke="#1A604E" stroke-linecap="round" stroke-linejoin="round"/>
</svg>
