<svg width="51" height="51" viewBox="0 0 51 51" fill="none" xmlns="http://www.w3.org/2000/svg">
<g clip-path="url(#clip0_340_1339)">
<path d="M15.3135 10.449C15.3135 13.6965 18.9367 17.1203 21.926 19.3917C23.6032 20.6638 24.4408 21.3019 25.8095 21.3019C27.1782 21.3019 28.0158 20.6638 29.693 19.3917C32.6823 17.1182 36.3055 13.6944 36.3055 10.449C36.3055 4.59226 30.5327 2.40279 25.8095 6.92868C21.0863 2.40279 15.3135 4.59226 15.3135 10.449Z" fill="#D85562"/>
<path d="M13.7598 44.2075H13.7603C15.956 44.2085 18.1453 44.4342 20.2947 44.8766C23.8299 45.604 27.5531 45.6932 31.1219 45.1167C32.8921 44.8288 34.576 44.3999 36.076 43.6752L36.0763 43.6751C37.5205 42.9779 39.1999 42.0354 40.2859 41.0291C41.3806 40.0148 42.5723 38.2955 43.4569 36.8776L13.7598 44.2075ZM13.7598 44.2075H13.214C12.196 44.2075 11.5333 44.2053 11.044 44.1395C10.5836 44.0776 10.4287 43.9762 10.3378 43.8853L10.3354 43.8829M13.7598 44.2075L10.3354 43.8829M10.3354 43.8829C10.2469 43.795 10.1456 43.6427 10.0836 43.1817M10.3354 43.8829L10.0836 43.1817M29.7506 34.8743L29.748 34.8714C29.5391 34.6413 29.3012 34.4466 29.0316 34.2856C26.6619 32.8725 23.6284 32.5368 20.4401 32.9838C17.2601 33.4297 14.0224 34.6428 11.3429 36.2012L29.7506 34.8743ZM29.7506 34.8743C29.9428 35.0843 30.0908 35.3307 30.1861 35.599C30.2813 35.8672 30.3217 36.1519 30.3049 36.4361C30.2881 36.7202 30.2145 36.9981 30.0884 37.2533C29.9623 37.5085 29.7862 37.7358 29.5707 37.9218L29.5526 37.9373M29.7506 34.8743L29.5526 37.9373M29.5526 37.9373L29.5354 37.9537M29.5526 37.9373L29.5354 37.9537M29.5354 37.9537C29.4032 38.0792 29.2419 38.1699 29.066 38.2176L29.4434 40.176M29.5354 37.9537L29.4434 40.176M29.4434 40.176C29.7075 40.1452 29.9622 40.1105 30.2074 40.0719L30.209 40.0717M29.4434 40.176L30.209 40.0717M30.209 40.0717C32.3752 39.7269 34.1453 38.574 35.642 37.4429M30.209 40.0717L35.642 37.4429M10.0836 43.1817C10.0178 42.6924 10.0156 42.0292 10.0156 41.0112M10.0836 43.1817L10.0156 41.0112M10.0156 41.0112V38.6768M10.0156 41.0112V38.6768M10.0156 38.6768C10.0156 37.4872 10.0452 37.2604 10.1624 37.0561M10.0156 38.6768L10.1624 37.0561M10.1624 37.0561C10.281 36.8491 10.4251 36.7355 11.3426 36.2014L10.1624 37.0561ZM35.642 37.4429C35.6421 37.4428 35.6423 37.4427 35.6424 37.4426M35.642 37.4429L35.6424 37.4426M35.6424 37.4426L39.4292 34.5836C39.9346 34.2192 40.5418 34.0231 41.165 34.0231C41.7878 34.0231 42.3947 34.219 42.8998 34.583C43.7468 35.2279 43.9032 36.1619 43.457 36.8775L35.6424 37.4426Z" fill="#B9D0AA" stroke="#1A604E" stroke-width="2"/>
</g>
<defs>
<clipPath id="clip0_340_1339">
<rect width="50.381" height="50.381" fill="white" transform="translate(0.619141 0.30957)"/>
</clipPath>
</defs>
</svg>
