<svg width="51" height="51" viewBox="0 0 51 51" fill="none" xmlns="http://www.w3.org/2000/svg">
<g clip-path="url(#clip0_714_2096)">
<path d="M15.3135 10.4487C15.3135 13.6962 18.9367 17.12 21.926 19.3913C23.6032 20.6634 24.4408 21.3016 25.8095 21.3016C27.1782 21.3016 28.0158 20.6634 29.693 19.3913C32.6823 17.1179 36.3055 13.6941 36.3055 10.4487C36.3055 4.59189 30.5327 2.40242 25.8095 6.92831C21.0863 2.40242 15.3135 4.59189 15.3135 10.4487Z" fill="#D85562"/>
<path d="M13.7601 44.2073H13.7605C15.9563 44.2084 18.1456 44.4341 20.2949 44.8765C23.8301 45.6039 27.5534 45.693 31.1221 45.1166C32.8924 44.8287 34.5762 44.3998 36.0762 43.6751L36.0765 43.6749C37.5207 42.9777 39.2002 42.0352 40.2861 41.029C41.3808 40.0147 42.5725 38.2954 43.4571 36.8775L13.7601 44.2073ZM13.7601 44.2073H13.2143C12.1962 44.2073 11.5336 44.2052 11.0443 44.1394C10.5839 44.0775 10.429 43.9761 10.338 43.8852L10.3356 43.8828M13.7601 44.2073L10.3356 43.8828M10.3356 43.8828C10.2472 43.7949 10.1458 43.6426 10.0838 43.1816M10.3356 43.8828L10.0838 43.1816M29.7509 34.8741L29.7482 34.8713C29.5393 34.6411 29.3015 34.4464 29.0318 34.2855C26.6622 32.8724 23.6286 32.5367 20.4403 32.9837C17.2603 33.4295 14.0226 34.6427 11.3431 36.2011L29.7509 34.8741ZM29.7509 34.8741C29.943 35.0842 30.0911 35.3306 30.1863 35.5989C30.2815 35.8671 30.3219 36.1518 30.3051 36.4359C30.2883 36.7201 30.2147 36.998 30.0886 37.2532C29.9625 37.5084 29.7865 37.7357 29.5709 37.9216L29.5529 37.9372M29.7509 34.8741L29.5529 37.9372M29.5529 37.9372L29.5356 37.9536M29.5529 37.9372L29.5356 37.9536M29.5356 37.9536C29.4034 38.0791 29.2421 38.1698 29.0662 38.2174L29.4437 40.1759M29.5356 37.9536L29.4437 40.1759M29.4437 40.1759C29.7078 40.1451 29.9625 40.1104 30.2077 40.0718L30.2092 40.0715M29.4437 40.1759L30.2092 40.0715M30.2092 40.0715C32.3754 39.7267 34.1455 38.5739 35.6423 37.4428M30.2092 40.0715L35.6423 37.4428M10.0838 43.1816C10.018 42.6923 10.0159 42.0291 10.0159 41.011M10.0838 43.1816L10.0159 41.011M10.0159 41.011V38.6767M10.0159 41.011V38.6767M10.0159 38.6767C10.0159 37.487 10.0455 37.2603 10.1626 37.056M10.0159 38.6767L10.1626 37.056M10.1626 37.056C10.2812 36.849 10.4253 36.7354 11.3429 36.2013L10.1626 37.056ZM35.6423 37.4428C35.6424 37.4427 35.6425 37.4426 35.6426 37.4425M35.6423 37.4428L35.6426 37.4425M35.6426 37.4425L39.4295 34.5835C39.9348 34.2191 40.5421 34.0229 41.1652 34.0229C41.788 34.0229 42.3949 34.2189 42.9001 34.5829C43.747 35.2278 43.9034 36.1618 43.4572 36.8774L35.6426 37.4425Z" fill="#B9D0AA" stroke="#1A604E" stroke-width="2"/>
</g>
<defs>
<clipPath id="clip0_714_2096">
<rect width="50.381" height="50.381" fill="white" transform="translate(0.619141 0.30957)"/>
</clipPath>
</defs>
</svg>

