<svg width="42" height="43" viewBox="0 0 42 43" fill="none" xmlns="http://www.w3.org/2000/svg">
<path d="M20.125 37.25H16.625H13.125H7.875C6.9085 37.25 6.125 36.4665 6.125 35.5V7.5C6.125 6.5335 6.9085 5.75 7.875 5.75H32.375C33.3415 5.75 34.125 6.5335 34.125 7.5V13.625V17.5625" stroke="#1A604E" stroke-width="3.5" stroke-linecap="round" stroke-linejoin="round"/>
<path d="M32.0568 24.125C34.1655 24.125 35.875 25.7704 35.875 27.8C35.875 30.4422 33.3295 32.7 32.0568 33.925C31.2084 34.7416 30.1477 35.5584 28.875 36.375C27.6023 35.5584 26.5416 34.7416 25.6931 33.925C24.4205 32.7 21.875 30.4422 21.875 27.8C21.875 25.7704 23.5845 24.125 25.6931 24.125C27.0212 24.125 28.1909 24.7777 28.875 25.7678C29.5591 24.7777 30.7288 24.125 32.0568 24.125Z" fill="#D85562" stroke="#1A604E" stroke-width="3.5" stroke-linejoin="round"/>
<path d="M13.125 12.75H27.125" stroke="#1A604E" stroke-width="3.5" stroke-linecap="round"/>
</svg>
